<svg width="100%" height="100%" viewBox="0 0 1299 984" fill="none" xmlns="http://www.w3.org/2000/svg">
<g clip-path="url(#clip0)">
<path d="M1299 302.767L1236.7 425.473L1011.41 426.896L938.021 427.363L763.856 428.467L690.495 428.933L516.329 430.038L442.968 430.504L268.803 431.633L195.442 432.099L77.8776 432.835L55.1375 396.171L25.6373 348.683L9.34534 322.4L0 302.767L55.9162 163.25C61.3829 149.618 72.2208 137.713 86.8574 129.262C101.494 120.811 119.168 116.255 137.314 116.253H1154.65C1172.27 116.261 1189.45 120.562 1203.85 128.567C1218.24 136.573 1229.14 147.89 1235.05 160.967L1241.53 175.348L1299 302.767Z" fill="#536DFE"/>
<path d="M1299 302.051H0V561.544H1299V302.051Z" fill="#536DFE"/>
<path opacity="0.1" d="M1299 302.051H0V561.544H1299V302.051Z" fill="black"/>
<path id="letter" d="M1099 -6.22784H246V794.051H1099V-6.22784Z" fill="#F2F2F2"/>
<path d="M1299 984H0V302.051L168.216 439.094L1137.01 432.566L1299 302.051V984Z" fill="#3F3D56"/>
<path d="M311 697.519H66V723.468H311V697.519Z" fill="#F2F2F2"/>
<path d="M194.5 645.62C189.061 645.62 183.744 644.372 179.222 642.034C174.699 639.696 171.175 636.373 169.093 632.485C167.012 628.597 166.467 624.318 167.528 620.191C168.59 616.063 171.209 612.271 175.055 609.296C178.901 606.32 183.801 604.293 189.135 603.472C194.47 602.651 199.999 603.072 205.024 604.683C210.049 606.293 214.344 609.021 217.365 612.52C220.387 616.019 222 620.133 222 624.342C221.992 629.983 219.092 635.392 213.936 639.381C208.781 643.37 201.791 645.614 194.5 645.62V645.62ZM194.5 606.61C189.968 606.61 185.537 607.65 181.768 609.598C178 611.546 175.062 614.316 173.328 617.556C171.593 620.796 171.139 624.361 172.024 627.801C172.908 631.241 175.091 634.4 178.295 636.88C181.5 639.36 185.584 641.049 190.029 641.733C194.475 642.417 199.082 642.066 203.27 640.724C207.457 639.382 211.036 637.109 213.555 634.193C216.073 631.277 217.417 627.849 217.417 624.342C217.41 619.64 214.993 615.133 210.697 611.809C206.401 608.485 200.576 606.615 194.5 606.61V606.61Z" fill="white"/>
<path class="line" d="M449.106 80.5931H386.563C381.823 80.5931 377.278 78.942 373.927 76.0032C370.576 73.0643 368.693 69.0784 368.693 64.9222C368.693 60.766 370.576 56.7801 373.927 53.8412C377.278 50.9023 381.823 49.2513 386.563 49.2513H449.106C453.845 49.2513 458.39 50.9023 461.741 53.8412C465.092 56.7801 466.975 60.766 466.975 64.9222C466.975 69.0784 465.092 73.0643 461.741 76.0032C458.39 78.942 453.845 80.5931 449.106 80.5931Z" fill="#6C63FF"/>
<path class="line" d="M522.817 133.482H386.563C381.823 133.482 377.278 131.831 373.927 128.892C370.576 125.953 368.693 121.968 368.693 117.811C368.693 113.655 370.576 109.669 373.927 106.73C377.278 103.792 381.823 102.141 386.563 102.141H522.817C527.557 102.141 532.102 103.792 535.453 106.73C538.804 109.669 540.687 113.655 540.687 117.811C540.687 121.968 538.804 125.953 535.453 128.892C532.102 131.831 527.557 133.482 522.817 133.482Z" fill="#FFDC40"/>
<path class="line" d="M903.493 274.52H517.066C512.327 274.52 507.781 272.869 504.43 269.93C501.079 266.991 499.196 263.005 499.196 258.849C499.196 254.693 501.079 250.707 504.43 247.768C507.781 244.829 512.327 243.178 517.066 243.178H903.493C908.232 243.178 912.778 244.829 916.129 247.768C919.48 250.707 921.363 254.693 921.363 258.849C921.363 263.005 919.48 266.991 916.129 269.93C912.778 272.869 908.232 274.52 903.493 274.52Z" fill="#6C63FF"/>
<path class="line" d="M939.232 335.245H479.093C474.354 335.245 469.809 333.594 466.458 330.655C463.106 327.716 461.224 323.73 461.224 319.574C461.224 315.418 463.106 311.432 466.458 308.493C469.809 305.554 474.354 303.903 479.093 303.903H939.232C943.971 303.903 948.516 305.554 951.868 308.493C955.219 311.432 957.101 315.418 957.101 319.574C957.101 323.73 955.219 327.716 951.868 330.655C948.516 333.594 943.971 335.245 939.232 335.245Z" fill="#FFDC40"/>
<path class="line" d="M939.232 394.01H479.093C474.354 394.01 469.809 392.359 466.458 389.421C463.106 386.482 461.224 382.496 461.224 378.34C461.224 374.183 463.106 370.197 466.458 367.259C469.809 364.32 474.354 362.669 479.093 362.669H939.232C943.971 362.669 948.516 364.32 951.868 367.259C955.219 370.197 957.101 374.183 957.101 378.34C957.101 382.496 955.219 386.482 951.868 389.421C948.516 392.359 943.971 394.01 939.232 394.01Z" fill="#FFDC40"/>
<path id="tickle" d="M627.237 346C615.821 346.016 604.707 343.175 595.572 337.905L595.006 337.578L475.757 267.313C470.235 264.056 465.6 259.994 462.117 255.359C458.634 250.724 456.371 245.607 455.458 240.298C454.545 234.99 455 229.596 456.796 224.423C458.592 219.25 461.694 214.4 465.925 210.15C470.157 205.9 475.434 202.333 481.457 199.652C487.48 196.972 494.13 195.23 501.027 194.528C507.924 193.825 514.934 194.175 521.655 195.557C528.377 196.939 534.679 199.327 540.202 202.583L617.442 248.164L799.973 64.9635C804.206 60.7144 809.485 57.1486 815.509 54.4697C821.533 51.7908 828.184 50.0514 835.082 49.3507C841.979 48.6499 848.988 49.0017 855.709 50.3858C862.43 51.7699 868.731 54.1592 874.252 57.4174L873.117 58.6033L874.282 57.4347C885.418 64.022 892.705 73.7402 894.544 84.4571C896.382 95.1741 892.621 106.015 884.087 114.6L669.387 330.088C664.421 335.053 658.036 339.072 650.726 341.831C643.416 344.591 635.379 346.017 627.237 346V346Z" fill="#6C63FF"/>
</g>
<defs>
<clipPath id="clip0">
<rect width="1299" height="984" fill="white"/>
</clipPath>
</defs>
</svg>
