<svg width="100%" height="100%" viewBox="0 0 542 705" fill="none" xmlns="http://www.w3.org/2000/svg">
<path d="M236.541 609C247.886 609 257.082 600.046 257.082 589C257.082 577.954 247.886 569 236.541 569C225.197 569 216 577.954 216 589C216 600.046 225.197 609 236.541 609Z" fill="#FFDC40"/>
<path d="M233.161 464C302.224 464 358.21 408.036 358.21 339C358.21 269.964 302.224 214 233.161 214C164.098 214 108.112 269.964 108.112 339C108.112 408.036 164.098 464 233.161 464Z" fill="#FFDC40"/>
<path d="M234.696 542L195.189 474.471L155.681 406.942L233.882 406.471L312.082 406L273.389 474L234.696 542Z" fill="#FFDC40"/>
<path d="M234.602 383C259.481 383 279.649 363.077 279.649 338.5C279.649 313.923 259.481 294 234.602 294C209.724 294 189.556 313.923 189.556 338.5C189.556 363.077 209.724 383 234.602 383Z" fill="white"/>
<path d="M230.531 39.6373C230.531 39.6373 203.733 32.1609 195.807 68.4218C187.881 104.683 193.92 123 193.92 123L253.743 116.084C253.743 116.084 270.727 50.6651 230.531 39.6373Z" fill="#2F2E41"/>
<path d="M190.56 197C190.56 197 150.901 200.928 157.965 216.852C165.029 232.775 165.029 234.18 165.029 234.18L199.876 296L211.178 284.292C211.178 284.292 198.464 256.66 198.464 247.762C198.464 238.863 185.278 223.408 185.278 223.408L208.353 221.535L190.56 197Z" fill="#FFB9B9"/>
<path d="M297.801 215.86L310.881 244.233C310.881 244.233 320.691 254 331.436 293.07C342.18 332.14 344.516 330.744 344.516 330.744L328.166 334C328.166 334 309.947 291.674 303.874 288.419C297.801 285.163 290.327 255.395 290.327 255.395L268.838 228.419L275.378 214L297.801 215.86Z" fill="#FFB9B9"/>
<path d="M281.989 183.333L301.992 220.909C301.992 220.909 276.872 209.167 273.151 235L250.357 217.152C250.357 217.152 218.724 227.485 199.652 223.727C199.652 223.727 205.234 205.879 185.231 197.894L230.354 192.258L228.493 182.394L233.145 173L281.989 183.333Z" fill="#2F2E41"/>
<path d="M202.407 287.212C202.407 287.212 189.687 285.361 192.985 296.465L199.581 318.674C199.581 318.674 191.1 341.345 204.292 336.256C217.483 331.166 225.963 299.704 225.963 299.704C225.963 299.704 231.617 275.645 225.963 275.645C220.31 275.645 202.407 271.944 204.292 275.645C206.176 279.346 202.407 287.212 202.407 287.212Z" fill="#2F2E41"/>
<path d="M343.084 324.319C343.084 324.319 326.678 320.151 322.927 326.634C319.177 333.118 320.115 354.42 320.115 354.883C320.115 355.346 325.74 359.977 327.615 359.977C329.49 359.977 341.209 380.816 357.147 373.407C373.085 365.997 343.084 324.319 343.084 324.319Z" fill="#2F2E41"/>
<path d="M243.781 81.1587C245.388 71.281 238.66 61.9742 228.753 60.3713C218.846 58.7684 209.512 65.4764 207.904 75.3541C206.297 85.2317 213.025 94.5386 222.932 96.1415C232.839 97.7444 242.173 91.0363 243.781 81.1587Z" fill="#FFB9B9"/>
<path d="M240.668 82C240.668 82 244.403 101.333 247.671 104.095C250.939 106.857 222.928 111 222.928 111C222.928 111 227.129 97.6508 221.994 90.746C216.859 83.8412 240.668 82 240.668 82Z" fill="#FFB9B9"/>
<path d="M289.804 192.883C286.618 192.883 278.504 191.563 269.407 189.864C261.537 188.395 252.923 186.649 246.128 185.235C238.852 183.719 233.654 182.586 233.654 182.586C233.654 182.586 231.782 194.287 225.699 192.883C220.458 191.676 204.797 136.958 200.562 121.836C200.253 120.731 200.312 119.556 200.732 118.489C201.152 117.422 201.909 116.521 202.888 115.924L224.398 102.786L229.91 104.893C229.91 104.893 239.222 97.6943 244.626 97.5492C250.031 97.4041 259.389 96 259.389 96C259.389 96 270.151 96.9361 272.023 104.893C273.895 112.849 274.831 162.461 281.849 171.353C288.868 180.246 298.695 192.883 289.804 192.883Z" fill="#FFDC40"/>
<path d="M224.152 218.223C224.152 218.223 224.152 236.521 236.448 233.706C248.745 230.89 237.394 214 237.394 214L224.152 218.223Z" fill="#FFB9B9"/>
<path d="M258.027 220.248C258.027 220.248 253.755 241.962 244.737 238.658C235.719 235.354 244.737 216 244.737 216L258.027 220.248Z" fill="#FFB9B9"/>
<path opacity="0.15" d="M277.487 169.984C277.487 169.984 272.981 180.973 269.391 190C261.65 188.523 253.177 186.768 246.495 185.348C246.975 184.049 247.649 182.833 248.492 181.744C251.714 177.981 249.873 177.04 249.873 177.04C247.111 171.396 249.413 163.869 249.413 163.869C243.89 148.816 252.174 130 252.174 130L277.487 169.984Z" fill="black"/>
<path d="M253.162 130.029C253.162 130.029 244.729 148.651 250.351 163.548C250.351 163.548 248.008 170.997 250.819 176.583C250.819 176.583 252.693 177.514 249.414 181.239C246.134 184.963 243.323 197.998 245.666 200.792C248.008 203.585 242.386 208.706 243.792 211.499C245.197 214.292 241.449 218.017 241.449 218.017C241.449 218.017 255.504 220.81 257.846 225C257.846 225 260.657 221.741 259.252 218.017C257.846 214.292 258.783 212.896 260.189 210.568C261.594 208.24 265.811 203.119 266.279 200.792C266.748 198.464 278.928 169.6 278.928 169.6L273.216 117L253.162 130.029Z" fill="#FFDC40"/>
<path d="M204.835 117L203.962 117.159C202.745 117.379 201.644 118.023 200.855 118.975C200.065 119.928 199.637 121.128 199.646 122.365C199.68 127.056 199.944 135.382 201.096 146.904C202.966 165.594 209.508 193.629 210.91 196.432C213.137 201.393 215.633 206.229 218.387 210.917C222.593 217.926 223.528 215.589 222.593 218.86C222.309 219.761 222.29 220.725 222.538 221.636C222.787 222.548 223.293 223.368 223.995 224C223.995 224 232.407 214.655 240.818 219.795C241.42 218.473 241.738 217.041 241.753 215.59C241.753 213.253 243.155 210.917 240.818 209.515C238.482 208.114 242.22 202.039 238.482 198.769C234.743 195.498 234.276 195.965 234.743 192.694C234.962 190.47 234.641 188.227 233.809 186.153L204.835 117Z" fill="#FFDC40"/>
<path d="M232.8 55C232.8 55 225.312 74.7867 206.966 83L203.971 65.4533L232.8 55Z" fill="#2F2E41"/>
<path d="M243.251 76C244.644 76 245.774 73.7614 245.774 71C245.774 68.2386 244.644 66 243.251 66C241.858 66 240.729 68.2386 240.729 71C240.729 73.7614 241.858 76 243.251 76Z" fill="#FFB9B9"/>
</svg>
