<svg width="100%" height="100%" viewBox="0 0 246 179" fill="none" xmlns="http://www.w3.org/2000/svg">
<path d="M92.25 22.375L73.4925 37.2917H41C29.725 37.2917 20.5 44.0042 20.5 52.2083V141.708C20.5 149.913 29.725 156.625 41 156.625H205C216.275 156.625 225.5 149.913 225.5 141.708V52.2083C225.5 44.0042 216.275 37.2917 205 37.2917H172.507L153.75 22.375H92.25ZM123 134.25C94.71 134.25 71.75 117.543 71.75 96.9583C71.75 76.3733 94.71 59.6667 123 59.6667C151.29 59.6667 174.25 76.3733 174.25 96.9583C174.25 117.543 151.29 134.25 123 134.25Z" fill="#4d4dff"/>
<path d="M123 126.792L135.812 106.281L164 96.9583L135.812 87.6354L123 67.125L110.188 87.6354L82 96.9583L110.188 106.281L123 126.792Z" fill="#5d51f2"/>
</svg>
