<svg width="100%" height="100%" viewBox="0 0 749 620" fill="none" xmlns="http://www.w3.org/2000/svg">
<path d="M525.594 48.3218C524.198 44.4244 521.647 41.055 518.287 38.6715C514.926 36.2881 510.92 35.0061 506.812 35H94.9555C92.3347 34.999 89.7393 35.519 87.3177 36.5303C84.8961 37.5416 82.6959 39.0243 80.8426 40.8939C78.9894 42.7634 77.5195 44.983 76.517 47.4258C75.5145 49.8686 74.999 52.4869 75 55.1307V373.959C75.0075 379.296 77.1124 384.412 80.8531 388.185C84.5939 391.959 89.6653 394.082 94.9555 394.09H506.812C512.102 394.082 517.174 391.959 520.915 388.185C524.655 384.412 526.76 379.296 526.768 373.959V55.1307C526.772 52.8095 526.374 50.5054 525.594 48.3218V48.3218Z" fill="white"/>
<path d="M525.594 48.3218C524.198 44.4244 521.647 41.055 518.287 38.6715C514.926 36.2881 510.92 35.0061 506.812 35H94.9555C92.3347 34.999 89.7393 35.519 87.3177 36.5303C84.8961 37.5416 82.6959 39.0243 80.8426 40.8939C78.9894 42.7634 77.5195 44.983 76.517 47.4258C75.5145 49.8686 74.999 52.4869 75 55.1307V373.959C75.0075 379.296 77.1124 384.412 80.8531 388.185C84.5939 391.959 89.6653 394.082 94.9555 394.09H506.812C512.102 394.082 517.174 391.959 520.915 388.185C524.655 384.412 526.76 379.296 526.768 373.959V55.1307C526.772 52.8095 526.374 50.5054 525.594 48.3218V48.3218ZM524.42 373.959C524.414 378.668 522.557 383.183 519.257 386.513C515.956 389.843 511.48 391.716 506.812 391.722H94.9555C90.2874 391.716 85.8121 389.843 82.5112 386.513C79.2104 383.183 77.3534 378.668 77.3477 373.959V55.1307C77.3534 50.4216 79.2104 45.907 82.5112 42.5771C85.8121 39.2473 90.2874 37.374 94.9555 37.3683H506.812C511.48 37.374 515.956 39.2473 519.257 42.5771C522.557 45.907 524.414 50.4216 524.42 55.1307V373.959Z" fill="#3F3D56"/>
<path d="M495.004 77.9014V300.529C495.004 301.265 494.86 301.994 494.581 302.674C494.303 303.354 493.894 303.972 493.378 304.492C492.862 305.012 492.25 305.425 491.576 305.707C490.903 305.989 490.18 306.134 489.451 306.134H114.812C114.545 306.136 114.279 306.116 114.015 306.072C112.694 305.88 111.485 305.214 110.611 304.196C109.737 303.178 109.256 301.876 109.255 300.529V77.9014C109.255 77.1656 109.399 76.437 109.678 75.7571C109.956 75.0772 110.365 74.4594 110.881 73.9389C111.397 73.4185 112.009 73.0055 112.682 72.7237C113.356 72.4419 114.079 72.2968 114.808 72.2965H489.447C490.177 72.2963 490.899 72.4409 491.573 72.7223C492.247 73.0036 492.86 73.4162 493.375 73.9363C493.891 74.4564 494.301 75.0739 494.58 75.7536C494.859 76.4334 495.003 77.162 495.004 77.8978V77.9014Z" fill="#E6E6E6"/>
<path d="M203.691 204.667C230.612 204.667 252.436 182.651 252.436 155.494C252.436 128.336 230.612 106.321 203.691 106.321C176.77 106.321 154.946 128.336 154.946 155.494C154.946 182.651 176.77 204.667 203.691 204.667Z" fill="#5D51F2"/>
<path d="M356.55 307.027H117.422C117.122 307.031 116.823 307.007 116.528 306.956L229.625 109.336C230.315 108.105 231.317 107.081 232.528 106.369C233.739 105.656 235.115 105.281 236.517 105.281C237.919 105.281 239.295 105.656 240.506 106.369C241.717 107.081 242.719 108.105 243.409 109.336L319.311 241.954L322.948 248.3L356.55 307.027Z" fill="#3F3D56"/>
<path d="M489.695 307.027H282.869L322.947 248.3L325.832 244.069L378.058 167.536C381.482 162.52 389.719 162.208 393.745 166.59C394.015 166.889 394.266 167.205 394.497 167.536L489.695 307.027Z" fill="#3F3D56"/>
<path d="M525.594 48.3218C524.198 44.4244 521.647 41.055 518.287 38.6715C514.926 36.2881 510.92 35.0061 506.812 35H94.9555C92.3347 34.999 89.7393 35.519 87.3177 36.5303C84.8961 37.5416 82.6959 39.0243 80.8426 40.8939C78.9894 42.7634 77.5195 44.983 76.517 47.4258C75.5145 49.8686 74.999 52.4869 75 55.1307V373.959C75.0075 379.296 77.1124 384.412 80.8531 388.185C84.5939 391.959 89.6653 394.082 94.9555 394.09H506.812C512.102 394.082 517.174 391.959 520.915 388.185C524.655 384.412 526.76 379.296 526.768 373.959V55.1307C526.772 52.8095 526.374 50.5054 525.594 48.3218V48.3218ZM524.42 373.959C524.414 378.668 522.557 383.183 519.257 386.513C515.956 389.843 511.48 391.716 506.812 391.722H94.9555C90.2874 391.716 85.8121 389.843 82.5112 386.513C79.2104 383.183 77.3534 378.668 77.3477 373.959V55.1307C77.3534 50.4216 79.2104 45.907 82.5112 42.5771C85.8121 39.2473 90.2874 37.374 94.9555 37.3683H506.812C511.48 37.374 515.956 39.2473 519.257 42.5771C522.557 45.907 524.414 50.4216 524.42 55.1307V373.959Z" fill="#3F3D56"/>
<path opacity="0.2" d="M356.55 307.027H274.906L314.984 248.299L317.869 244.07L319.312 241.954L322.947 248.299L356.55 307.027Z" fill="black"/>
<path d="M672.828 238.318C671.435 234.422 668.888 231.053 665.533 228.671C662.179 226.288 658.179 225.006 654.078 225H242.922C240.305 224.999 237.714 225.519 235.297 226.53C232.879 227.541 230.683 229.023 228.833 230.892C226.983 232.761 225.515 234.98 224.514 237.423C223.514 239.865 222.999 242.482 223 245.126V563.874C223.007 569.21 225.109 574.324 228.843 578.097C232.578 581.87 237.64 583.992 242.922 584H654.078C659.36 583.992 664.422 581.87 668.157 578.097C671.891 574.324 673.992 569.21 674 563.874V245.126C674.004 242.805 673.607 240.502 672.828 238.318V238.318Z" fill="white"/>
<path d="M672.825 238.281C671.429 234.396 668.877 231.037 665.514 228.66C662.152 226.284 658.144 225.006 654.034 225H241.966C239.344 224.999 236.747 225.517 234.324 226.526C231.901 227.534 229.7 229.012 227.846 230.876C225.991 232.74 224.521 234.953 223.518 237.388C222.515 239.824 221.999 242.434 222 245.07V562.93C222.007 568.251 224.113 573.351 227.856 577.113C231.599 580.876 236.673 582.992 241.966 583H654.034C659.327 582.992 664.401 580.876 668.144 577.113C671.886 573.351 673.992 568.251 674 562.93V245.07C674.004 242.755 673.606 240.458 672.825 238.281V238.281ZM671.651 562.93C671.645 567.625 669.787 572.126 666.485 575.446C663.182 578.766 658.705 580.633 654.034 580.639H241.966C237.295 580.633 232.818 578.766 229.515 575.446C226.213 572.126 224.355 567.625 224.349 562.93V245.07C224.355 240.375 226.213 235.874 229.515 232.554C232.818 229.234 237.295 227.367 241.966 227.361H654.034C658.705 227.367 663.182 229.234 666.485 232.554C669.787 235.874 671.645 240.375 671.651 245.07V562.93Z" fill="#3F3D56"/>
<path d="M641 267.609V490.391C641 491.127 640.857 491.856 640.579 492.537C640.3 493.217 639.892 493.835 639.378 494.356C638.863 494.877 638.252 495.29 637.58 495.572C636.907 495.854 636.186 496 635.458 496H261.545C261.279 496.002 261.013 495.981 260.751 495.937C259.432 495.745 258.225 495.079 257.353 494.06C256.48 493.041 256 491.739 256 490.391V267.609C256 266.872 256.143 266.143 256.421 265.463C256.7 264.783 257.108 264.164 257.622 263.644C258.137 263.123 258.748 262.709 259.42 262.427C260.093 262.145 260.814 262 261.542 262H635.455C636.183 262 636.903 262.145 637.576 262.426C638.249 262.708 638.86 263.12 639.375 263.641C639.89 264.161 640.298 264.779 640.577 265.46C640.856 266.14 641 266.869 641 267.605V267.609Z" fill="#E6E6E6"/>
<path d="M350.5 394C377.286 394 399 372.062 399 345C399 317.938 377.286 296 350.5 296C323.714 296 302 317.938 302 345C302 372.062 323.714 394 350.5 394Z" fill="#5D51F2"/>
<path d="M504 498H264.893C264.594 498.004 264.295 497.979 264 497.928L377.086 299.08C377.777 297.842 378.778 296.811 379.989 296.095C381.2 295.378 382.576 295 383.978 295C385.38 295 386.756 295.378 387.967 296.095C389.178 296.811 390.179 297.842 390.869 299.08L466.765 432.522L470.401 438.907L504 498Z" fill="#3F3D56"/>
<path opacity="0.2" d="M504 498H422L462.253 438.435L465.151 434.146L466.6 432L470.251 438.435L504 498Z" fill="black"/>
<path d="M637 498H430L470.113 438.66L472.999 434.386L525.269 357.055C528.696 351.987 536.94 351.671 540.969 356.099C541.24 356.401 541.491 356.72 541.722 357.055L637 498Z" fill="#3F3D56"/>
<path d="M672.825 238.281C671.429 234.396 668.877 231.037 665.514 228.66C662.152 226.284 658.144 225.006 654.034 225H241.966C239.344 224.999 236.747 225.517 234.324 226.526C231.901 227.534 229.7 229.012 227.846 230.876C225.991 232.74 224.521 234.953 223.518 237.388C222.515 239.824 221.999 242.434 222 245.07V562.93C222.007 568.251 224.113 573.351 227.856 577.113C231.599 580.876 236.673 582.992 241.966 583H654.034C659.327 582.992 664.401 580.876 668.144 577.113C671.886 573.351 673.992 568.251 674 562.93V245.07C674.004 242.755 673.606 240.458 672.825 238.281V238.281ZM671.651 562.93C671.645 567.625 669.787 572.126 666.485 575.446C663.182 578.766 658.705 580.633 654.034 580.639H241.966C237.295 580.633 232.818 578.766 229.515 575.446C226.213 572.126 224.355 567.625 224.349 562.93V245.07C224.355 240.375 226.213 235.874 229.515 232.554C232.818 229.234 237.295 227.367 241.966 227.361H654.034C658.705 227.367 663.182 229.234 666.485 232.554C669.787 235.874 671.645 240.375 671.651 245.07V562.93Z" fill="#3F3D56"/>
</svg>
