<svg width="100%" height="100%" viewBox="0 0 1111 811" fill="none" xmlns="http://www.w3.org/2000/svg">
<g clip-path="url(#clip0)">
<g opacity="0.1">
<path opacity="0.1" d="M673.213 377.442C673.213 377.442 677.614 282.265 728.52 229.188C749.89 206.905 764.108 178.421 768.191 147.444C770.093 132.742 770.683 117.881 769.952 103.06" stroke="#535461" stroke-width="2" stroke-miterlimit="10"/>
<path opacity="0.1" d="M801.847 69.3675C798.265 79.9413 769.218 103.987 769.218 103.987C769.218 103.987 760.954 66.7567 764.499 56.1177C768.044 45.4787 779.341 39.9308 789.646 43.612C792.053 44.412 794.286 45.7201 796.21 47.4586C798.135 49.1972 799.713 51.3308 800.851 53.7329C801.989 56.1349 802.664 58.7566 802.835 61.4423C803.006 64.128 802.67 66.823 801.847 69.3675Z" fill="#6C63FF"/>
<path opacity="0.1" d="M812.887 139.024C804.329 145.916 767.176 149.898 767.176 149.898C767.176 149.898 779.976 113.921 788.583 107.041C792.75 103.724 797.95 102.241 803.111 102.896C808.272 103.552 813 106.297 816.322 110.566C817.913 112.646 819.09 115.051 819.781 117.633C820.472 120.215 820.662 122.921 820.341 125.584C820.019 128.248 819.193 130.814 817.911 133.124C816.629 135.435 814.92 137.442 812.887 139.024V139.024Z" fill="#6C63FF"/>
<path opacity="0.1" d="M777.69 238.73C766.871 240.218 732.872 224.371 732.872 224.371C732.872 224.371 761.626 199.947 772.433 198.472C783.24 196.997 793.216 204.777 794.647 215.873C796.077 226.969 788.497 237.242 777.69 238.73Z" fill="#6C63FF"/>
<path opacity="0.1" d="M734.498 308.008C724.082 311.35 687.981 301.677 687.981 301.677C687.981 301.677 712.297 272.631 722.713 269.29C733.129 265.948 744.205 271.9 747.469 282.592C748.221 285.169 748.481 287.882 748.232 290.568C747.984 293.255 747.232 295.861 746.022 298.232C744.813 300.602 743.169 302.689 741.19 304.369C739.21 306.048 736.934 307.286 734.498 308.008V308.008Z" fill="#6C63FF"/>
<path opacity="0.1" d="M727.285 137.992C732.176 147.992 764.059 167.899 764.059 167.899C764.059 167.899 767.494 129.768 762.592 119.756C760.105 114.898 755.959 111.252 751.017 109.576C746.075 107.901 740.719 108.325 736.063 110.762C733.772 111.886 731.719 113.494 730.027 115.49C728.335 117.485 727.039 119.827 726.219 122.372C725.398 124.917 725.07 127.614 725.253 130.299C725.436 132.984 726.128 135.601 727.285 137.992Z" fill="#6C63FF"/>
<path opacity="0.1" d="M677.822 219.671C685.414 227.713 721.625 236.916 721.625 236.916C721.625 236.916 713.789 199.477 706.197 191.436C702.475 187.56 697.504 185.355 692.306 185.272C687.108 185.19 682.078 187.237 678.25 190.992C676.394 192.804 674.904 195.002 673.872 197.451C672.84 199.9 672.286 202.548 672.246 205.233C672.206 207.918 672.68 210.584 673.639 213.067C674.598 215.549 676.021 217.797 677.822 219.671V219.671Z" fill="#6C63FF"/>
<path opacity="0.1" d="M640.278 305.828C646.391 315.07 680.622 330.435 680.622 330.435C680.622 330.435 679.045 292.173 672.932 282.918C669.848 278.46 665.282 275.433 660.171 274.462C655.061 273.49 649.797 274.648 645.462 277.696C643.344 279.136 641.522 281.021 640.107 283.235C638.692 285.449 637.712 287.946 637.227 290.577C636.743 293.207 636.763 295.915 637.288 298.536C637.812 301.158 638.829 303.639 640.278 305.828V305.828Z" fill="#6C63FF"/>
</g>
<path d="M223 623.79C223 625.017 223.218 626 223.491 626C223.764 626 224 625.006 224 623.79C224 622.575 223.727 623.138 223.436 623.138C223.145 623.138 223 622.553 223 623.79Z" fill="#FFD037"/>
<path d="M221.71 625.507C222.905 625.859 223.897 626.071 223.993 625.978C224.089 625.885 223.204 625.533 222.033 625.181C220.862 624.829 221.328 625.081 221.232 625.181C221.137 625.281 220.551 625.148 221.71 625.507Z" fill="#FFD037"/>
<path d="M252.279 625.507C251.082 625.859 250.089 626.071 250.006 625.978C249.922 625.885 250.795 625.533 251.968 625.181C253.14 624.829 252.674 625.081 252.757 625.181C252.841 625.281 253.475 625.148 252.279 625.507Z" fill="#FFD037"/>
<path d="M173.158 492.693L173.154 492.68C171.368 486.607 165.309 483.229 159.621 485.136L134.159 493.672C128.471 495.579 125.307 502.048 127.093 508.122L127.097 508.134C128.883 514.208 134.941 517.586 140.629 515.679L166.092 507.143C171.78 505.236 174.943 498.767 173.158 492.693Z" fill="#FFDC40"/>
<path d="M751 143.592C751 143.592 747.216 112.664 726.892 112.012C706.568 111.359 730.078 150.375 732.47 153.897C733.874 155.945 732.751 161.646 731.591 166.042C730.732 169.203 730.035 172.413 729.504 175.656C728.961 179.745 727.373 183.595 724.914 186.783C721.501 191.183 718.743 196.12 716.736 201.418C716.736 201.418 710.755 201.692 708.57 200.114C706.385 198.536 692.432 193.096 691.834 193.97C691.7 194.153 691.321 194.231 690.797 194.218C689.976 194.173 689.16 194.064 688.355 193.892C688.245 193.161 688.123 192.431 687.952 191.674C687.952 191.674 686.231 190.879 684.29 189.757C684.29 189.757 684.29 189.757 684.29 189.691V189.626C684.742 188.4 685.035 187.083 685.511 185.882V185.778C685.835 184.869 686.369 184.062 687.061 183.43C688.929 181.826 691.627 182.374 693.885 181.578C694.138 181.487 694.386 181.383 694.629 181.265L694.898 181.095L695.313 180.847L695.606 180.626L695.936 180.365L696.229 180.091C696.316 179.989 696.41 179.893 696.509 179.804L696.766 179.478L697.022 179.165L697.254 178.812C697.327 178.695 697.413 178.591 697.474 178.473C697.535 178.356 697.62 178.225 697.681 178.095L697.876 177.717L698.06 177.325L698.218 176.921C698.278 176.785 698.331 176.646 698.377 176.504C698.377 176.373 698.462 176.23 698.511 176.086C698.56 175.943 698.584 175.799 698.633 175.656C698.682 175.512 698.633 175.382 698.731 175.225C698.771 175.079 698.803 174.931 698.829 174.782L698.902 174.351C698.902 174.195 698.902 174.038 698.963 173.882C699.024 173.725 698.963 173.608 698.963 173.477V172.968C698.957 172.847 698.957 172.725 698.963 172.603C698.963 172.421 698.963 172.238 698.963 172.055V171.768V171.129C698.963 171.129 698.963 171.051 698.963 171.012C698.916 170.477 698.839 169.945 698.731 169.42C698.169 166.811 697.059 164.007 697.828 161.672C697.855 161.583 697.888 161.496 697.925 161.411C698.023 161.15 698.146 160.901 698.291 160.667C698.806 159.89 699.506 159.273 700.318 158.88C701.026 158.489 701.807 158.189 702.539 157.863C705.268 156.793 707.697 154.997 709.595 152.645C710.895 150.953 711.739 148.915 712.036 146.749C712.183 145.768 712.183 144.769 712.036 143.788C712.036 143.697 712.036 143.605 712.036 143.514C711.513 141.817 711.145 140.069 710.938 138.296C710.931 137.602 711.025 136.911 711.218 136.248C711.316 135.935 711.426 135.622 711.548 135.309L711.646 135.087C711.78 134.787 711.926 134.487 712.073 134.2C712.106 134.151 712.134 134.099 712.158 134.044L712.634 133.235L712.744 133.065C712.915 132.778 713.11 132.491 713.293 132.204C713.745 131.513 714.221 130.835 714.661 130.13C714.868 129.804 715.064 129.465 715.247 129.126C715.43 128.774 715.601 128.435 715.759 128.082C715.759 128.082 715.759 127.965 715.759 127.913C715.911 127.546 716.046 127.172 716.162 126.791L716.272 126.413C716.382 125.982 716.479 125.565 716.553 125.108C716.547 125.004 716.547 124.899 716.553 124.795C716.553 124.404 716.65 124.013 716.675 123.621C716.668 123.526 716.668 123.43 716.675 123.334C716.675 122.878 716.675 122.421 716.675 121.951C716.681 121.839 716.681 121.725 716.675 121.612C716.675 121.156 716.675 120.686 716.589 120.23C716.427 118.59 716.158 116.964 715.784 115.364C715.259 113.029 714.331 110.355 712.207 109.729C711.101 109.554 709.974 109.607 708.887 109.885C705.414 110.169 701.95 109.23 699.024 107.211C696.102 105.184 693.309 102.953 690.662 100.532C688.807 98.9802 686.512 97.4409 684.29 98.2105C683.51 98.559 682.755 98.9688 682.032 99.4367C681.875 99.5062 681.711 99.5586 681.544 99.5933C680.771 99.7469 679.986 99.8168 679.2 99.8019H678.98C678.309 97.5061 677.589 95.2364 676.783 92.9927C674.745 87.2923 672.145 81.5658 667.738 77.809C665.166 75.8043 662.359 74.1685 659.389 72.9433C650.441 68.7691 640.603 64.5297 631.313 67.5168C627.2 68.8213 623.55 71.4302 619.973 74.0391L604.971 84.9834L603.848 84.6182C601.651 83.9399 599.381 83.5355 598.062 83.0659L597.83 82.9876C593.607 81.3049 589.383 77.6133 589.286 72.6564C589.281 71.8898 589.35 71.1248 589.493 70.3736C589.857 68.7991 590.318 67.2522 590.873 65.7428C591.178 64.8558 591.434 63.9557 591.69 63.0556L591.935 62.0904C592.081 61.5164 592.215 60.9424 592.35 60.3685L592.606 59.064C592.704 58.5944 592.777 58.1379 592.862 57.6683C592.948 57.1987 593.033 56.6769 593.094 56.1812C593.094 55.9594 593.094 55.7246 593.192 55.4898C593.375 54.068 593.509 52.6461 593.582 51.2243C593.582 50.4677 593.582 49.7111 593.656 48.9415C593.656 48.8372 593.656 48.7198 593.656 48.6154C593.656 47.8458 593.656 47.0762 593.656 46.3065C593.401 36.2112 590.482 26.3983 585.233 18C584.226 20.1655 583.664 22.5361 583.585 24.9527C583.611 25.4028 583.527 25.8522 583.341 26.2572C583.2 26.4278 583.028 26.5663 582.835 26.6643C582.643 26.7624 582.433 26.8179 582.22 26.8276C582.007 26.8374 581.795 26.8011 581.595 26.721C581.395 26.6409 581.213 26.5187 581.058 26.3615C580.451 25.6934 579.88 24.9878 579.349 24.2483C578.687 23.5542 577.829 23.1137 576.908 22.9957C575.987 22.8778 575.056 23.0889 574.259 23.5961C573.479 24.1663 572.882 24.9787 572.548 25.9236C572.214 26.8684 572.159 27.9001 572.392 28.8791C569.37 27.2773 566.006 26.5544 562.64 26.7834C559.273 27.0124 556.022 28.1852 553.215 30.1836C551.608 31.1621 550.421 32.7719 549.907 34.6708V34.6708C549.677 35.9182 549.881 37.2123 550.481 38.3103C551.518 40.4757 553.532 42.4323 554.851 44.6499C549.309 52.0983 546.867 63.0687 546.867 63.0687L545.793 64.5036C543.294 66.154 540.983 68.1109 538.909 70.3345C537.407 72.0824 536.15 74.4826 536.614 76.8567L517.986 101.837C517.986 101.837 498.053 130.887 496.014 137.461C495.599 138.766 487.47 148.862 499.786 161.137C512.103 173.412 514.532 174.729 516.326 178.904C517.376 181.343 525.408 185.791 531.914 189.065L534.185 190.2C533.66 197.427 536.809 205.854 546.318 215.559C546.52 216.707 546.614 217.873 546.599 219.042C546.599 227.586 550.188 241.739 550.188 241.739C550.188 241.739 555.266 250.283 548.698 255.879C542.131 261.475 540.654 264.697 544.695 269.237L544.817 269.367L544.219 282.203H542.461C542.461 282.203 526.592 294.034 523.296 300.948C520 307.861 514.044 326.306 514.044 326.306C514.044 326.306 512.823 344.06 511.053 346.695C509.283 349.33 511.053 360.183 511.053 360.183C511.053 360.183 510.748 376.958 514.629 380.911C518.511 384.863 517.327 394.725 517.327 394.725C517.418 396.865 517.646 398.996 518.011 401.103C513.848 399.799 506.488 398.938 505.218 409.204C504.134 416.974 503.836 424.846 504.327 432.684C504.327 432.684 500.738 449.942 498.053 454.86C495.367 459.777 489.679 503.437 514.935 495.976C514.935 495.976 518.731 494.815 521.038 489.271C521.992 488.176 522.869 487.008 523.662 485.775C523.565 494.293 525.762 501.494 533.538 499.733C533.538 499.733 538.005 498.676 540.019 488.632C544.048 484.413 547.724 479.825 551.005 474.922L558.22 455.695L558.769 454.221L565.483 446.524C576.618 450.251 588.064 452.82 599.661 454.194C603.067 454.583 606.491 454.748 609.915 454.69C615.859 454.808 621.797 454.209 627.615 452.903C638.503 454.521 657.497 455.851 673.463 449.264C697.364 439.402 680.934 417.683 676.747 413.078C672.56 408.474 659.352 394.816 658.29 393.746V393.668C658.29 393.668 660.731 314.723 655.592 312.427C650.453 310.131 633.486 290.708 633.486 290.708L635.281 278.211C635.281 278.211 643.642 279.203 643.947 271.298C644.252 263.393 643.947 251.561 643.947 251.561L654.933 230.508C654.933 230.508 668.239 222.068 674.281 219.211C674.598 219.433 674.94 219.668 675.318 219.889C681.886 223.907 695.948 228.316 700.855 227.325C707.434 226.02 720.581 229.086 728.93 229.934C737.28 230.782 741.137 221.833 740.282 220.803C739.428 219.772 743.676 209.702 743.676 209.702C743.676 209.702 751.647 168.468 749.853 161.894C748.058 155.319 751 143.592 751 143.592ZM536.357 408.16C537.053 408.526 537.773 408.878 538.518 409.23C542.433 410.975 546.435 412.49 550.505 413.77L557.975 416.731C557.975 416.731 546.721 417.018 541.106 417.318C538.451 416.772 535.962 415.54 533.855 413.73C534.269 411.69 535.126 409.782 536.357 408.16V408.16ZM649.233 177.795C649.098 177.404 648.976 176.986 648.867 176.569C649.892 176.295 650.893 175.982 651.894 175.63C651.222 176.451 650.405 177.43 649.452 178.486C649.379 178.251 649.294 178.03 649.233 177.795ZM523.504 145.184C523.504 145.184 528.838 131.135 532.94 121.508C533.102 122.282 533.285 123.052 533.489 123.817C533.318 123.817 533.342 123.608 534.05 125.578V125.682C536.2 131.665 540.151 136.713 545.28 140.031C546.952 141.122 548.739 141.997 550.603 142.64C550.603 142.575 550.603 142.51 550.603 142.444C550.614 142.319 550.614 142.192 550.603 142.066C550.609 141.988 550.609 141.909 550.603 141.831C550.615 141.71 550.615 141.587 550.603 141.466L550.529 141.283C550.481 141.155 550.419 141.033 550.346 140.918L550.236 140.788C550.19 140.709 550.132 140.639 550.066 140.579C550.896 141.14 551.738 141.675 552.58 142.223C552.763 142.327 552.934 142.457 553.117 142.575C553.984 143.11 554.851 143.618 555.729 144.127L556.364 144.518C557.402 145.105 558.464 145.679 559.526 146.227L559.684 146.306L561.003 146.958L563.078 147.962C563.741 148.35 564.5 148.51 565.251 148.419C565.736 148.272 566.186 148.014 566.569 147.662L566.972 147.336C569.499 145.327 572.721 144.805 575.602 143.514C578.483 142.223 581.351 139.509 581.168 136.079C581.033 134.967 580.678 133.899 580.127 132.945C579.575 131.991 578.84 131.174 577.97 130.548C576.322 129.243 574.418 128.278 572.746 126.974C569.657 124.547 567.509 119.995 568.485 116.212C568.559 115.932 568.648 115.658 568.754 115.39L568.827 115.194C568.925 114.977 569.035 114.755 569.157 114.529C569.157 114.464 569.23 114.386 569.279 114.307C569.673 113.693 570.141 113.136 570.67 112.651C571.363 112.032 572.088 111.457 572.843 110.929L587.565 100.324C588.675 99.515 589.786 98.7192 590.934 97.9757C591.917 97.3286 592.932 96.7364 593.973 96.2017C594.278 96.0582 594.583 95.9016 594.901 95.7712L595.511 95.4973C596.06 95.2755 596.61 95.0668 597.183 94.8842C597.489 94.8059 597.904 94.7277 598.404 94.6494C596.772 99.8947 594.667 104.958 592.118 109.768C591.63 110.613 591.244 111.52 590.97 112.468C590.895 112.731 590.85 113.002 590.836 113.277C590.831 114.447 591.064 115.604 591.519 116.668C592.374 119.121 592.74 120.947 594.681 122.408C595.194 122.799 595.67 123.165 596.085 123.543C596.085 123.934 595.975 124.326 595.926 124.717C595.716 126.652 595.61 128.599 595.609 130.548C595.591 140.706 598.582 150.61 604.153 158.841L603.665 159.428C601.04 162.696 598.014 165.571 594.669 167.972C594.278 168.233 593.888 168.481 593.448 168.716C592.845 167.675 592.365 166.558 592.02 165.39C591.086 165.76 590.055 165.727 589.144 165.298C588.232 164.87 587.513 164.079 587.137 163.094C585.404 159.467 580.021 163.094 580.021 163.094C580.021 163.094 567.814 155.528 567.179 158.815C567.056 159.33 566.817 159.804 566.484 160.198L565.763 159.467C565.763 159.467 562.956 160.459 559.013 162.389C557.272 161.998 555.717 160.963 554.619 159.467C553.398 157.772 553.715 160.276 554.484 164.79L554.387 164.855L552.959 164.294C544.524 160.981 524.456 152.371 523.516 145.118L523.504 145.184ZM661.342 178.004C660.792 176.164 658.131 174.729 656.142 173.882C666.228 168.856 674.155 159.929 678.321 148.901C678.504 148.419 678.675 147.923 678.846 147.427C679.2 147.336 679.554 147.271 679.896 147.153C680.629 146.994 681.321 146.667 681.923 146.194C682.526 145.721 683.026 145.114 683.387 144.414C683.616 143.75 683.736 143.048 683.741 142.34C683.839 140.762 683.9 139.183 683.936 137.605V137.383C684.151 127.705 683.245 118.035 681.239 108.594L682.557 109.755C683.07 110.211 683.582 110.668 684.083 111.138C684.583 111.607 684.95 111.985 685.304 112.442L685.499 112.651C685.89 113.068 686.268 113.499 686.622 113.955C686.666 114.008 686.707 114.065 686.744 114.125C687.062 114.543 687.359 114.978 687.635 115.429L687.94 115.938C688.176 116.338 688.396 116.773 688.599 117.242L688.721 117.503C688.909 117.962 689.072 118.433 689.21 118.912L689.32 119.238C689.429 119.656 689.515 120.073 689.6 120.543C689.6 120.738 689.686 120.921 689.722 121.117C689.796 121.56 689.844 122.017 689.893 122.486C689.893 122.643 689.893 122.812 689.893 122.982C689.893 123.412 689.954 123.856 689.979 124.286C690.003 124.717 689.979 124.847 689.979 125.121C690.119 133.907 688.409 142.614 684.974 150.597C681.566 158.498 677.204 165.888 671.998 172.577C670.283 174.596 668.841 176.862 667.714 179.308C667.53 179.781 667.371 180.264 667.238 180.756C665.138 180.456 661.891 179.817 661.354 177.938L661.342 178.004Z" fill="url(#paint0_linear)"/>
<path d="M755.983 164.567C757.821 171.087 749.648 211.947 749.648 211.947C749.648 211.947 745.36 222.002 746.181 222.954C747.002 223.906 743.117 232.814 734.54 231.94C725.963 231.066 712.485 228.027 705.746 229.331C700.71 230.31 686.3 225.941 679.561 221.963C677.27 220.659 675.885 219.289 676.008 218.246C676.534 214.125 689.4 195.423 689.4 195.423C691.328 195.97 693.295 196.345 695.282 196.545C695.821 196.545 696.213 196.479 696.348 196.297C696.96 195.423 711.259 200.861 713.502 202.387C715.744 203.913 721.871 203.626 721.871 203.626C723.94 198.358 726.768 193.466 730.252 189.124C732.764 185.989 734.398 182.166 734.969 178.091C735.509 174.872 736.22 171.689 737.101 168.557C738.326 164.201 739.441 158.554 738.008 156.52C735.557 153.038 711.456 114.356 732.286 115.008C753.116 115.66 757 146.308 757 146.308C757 146.308 754.145 158.046 755.983 164.567Z" fill="#FBBEBE"/>
<path d="M662 201.586L644.838 209.448L624.918 216C624.918 216 579.256 176.36 590.901 173.412C592.93 172.865 594.866 171.981 596.638 170.791C600.059 168.414 603.164 165.553 605.869 162.286C608.817 158.824 611.498 155.112 613.886 151.187C613.886 151.187 658.935 148.894 651.887 160.36C649.141 164.829 650.073 172.088 652.23 179.282C652.353 179.715 652.487 180.147 652.622 180.593C655.111 187.896 658.252 194.925 662 201.586V201.586Z" fill="#FBBEBE"/>
<path d="M549.153 420.517C549.153 420.517 541.587 412.631 538.83 424.776C537.264 431.304 536.173 437.964 535.569 444.69C535.569 444.69 531.393 459.005 529.188 462.935C526.983 466.865 518.502 503.421 534.701 499.74C534.701 499.74 540.66 498.32 541.821 482.902C542.983 467.483 553 421.49 553 421.49L549.153 420.517Z" fill="#3F3D56"/>
<path d="M678.038 449.954C660.88 456.789 640.363 455.028 629.516 453.345C624.835 452.628 621.967 451.91 621.967 451.91L568.346 446.041L567.268 447.241L560.38 454.871L552.413 475.388C552.413 475.388 530.965 506.691 528.514 488.105C528.054 484.038 527.903 479.938 528.06 475.844C528.551 456.032 533.416 429.737 533.416 429.737L582.134 422.89L612.775 405.934L613.106 388.247L613.179 383.904L613.387 373L655.058 377.239L662.412 394.847L662.485 394.925C663.564 395.995 677.291 409.703 681.409 414.086C685.527 418.468 702.551 440.172 678.038 449.954Z" fill="#FBBEBE"/>
<path d="M560 456.202C560 456.202 537.442 457.182 535.989 453L529 470.236C529 470.236 549.536 478.404 552.38 475.294L560 456.202Z" fill="#FFDC40"/>
<path d="M521.564 402.965C521.564 402.965 507.56 395.444 505.752 409.831C504.657 417.566 504.353 425.408 504.848 433.215C504.848 433.215 501.232 450.374 498.521 455.279C495.809 460.183 490.084 503.565 515.538 496.15C515.538 496.15 524.878 493.377 523.372 475.551C521.865 457.725 528 403.291 528 403.291L521.564 402.965Z" fill="#3F3D56"/>
<path opacity="0.1" d="M599.669 369L643.925 410.992C643.925 410.992 669.563 425.755 639.042 451.015C639.042 451.015 625.307 457.248 604.247 454.952C591.174 453.462 578.283 450.493 565.79 446.094C565.79 446.094 549.919 443.47 544.425 452.656C538.931 461.841 526.722 481.853 526.722 481.853C526.722 481.853 511.767 513.675 502 474.308L514.514 435.924C514.514 435.924 515.124 423.13 514.514 420.178C513.903 417.225 522.755 404.103 527.333 408.367C531.911 412.632 538.015 418.537 543.204 418.209C548.393 417.881 561.517 417.553 561.517 417.553L553.887 414.6C553.887 414.6 531.911 408.039 533.437 403.118C534.963 398.197 545.646 374.249 545.646 374.249L599.669 369Z" fill="black"/>
<path d="M636.933 451.015C634.404 452.054 631.798 452.866 629.142 453.443C620.198 455.485 611.006 455.994 601.912 454.952C589.987 453.582 578.209 451.021 566.732 447.302C564.471 446.567 563.205 446.094 563.205 446.094C563.205 446.094 547.23 443.47 541.701 452.656C538.014 458.705 531.49 469.439 527.422 476.079L523.883 481.853C523.883 481.853 508.83 513.675 499 474.308L511.595 435.924C511.595 435.924 512.21 423.13 511.595 420.178C511.177 418.17 515.146 411.49 519.177 408.748C521.082 407.436 523.011 406.989 524.498 408.367C527.51 411.383 530.804 414.061 534.328 416.359C536.177 417.568 538.304 418.208 540.472 418.209C545.694 417.881 558.904 417.553 558.904 417.553L551.224 414.6C547.055 413.329 542.953 411.818 538.936 410.073C534.156 407.921 529.978 405.349 530.679 403.118C532.215 398.197 542.967 374.249 542.967 374.249L597.341 369L612.799 383.579L619.423 389.812L641.885 410.992C641.885 410.992 667.653 425.755 636.933 451.015Z" fill="#FBBEBE"/>
<path opacity="0.1" d="M598 429C598 429 586.422 412.186 559 416.802" stroke="black" stroke-miterlimit="10"/>
<path opacity="0.1" d="M510.999 433L502 454.458C502 454.458 511.93 478.188 531.17 474.638L543 452.341C543 452.341 516.287 449.449 510.999 433Z" fill="black"/>
<path d="M509.999 435L501 456.458C501 456.458 510.93 480.188 530.17 476.638L542 454.341C542 454.341 515.287 451.449 509.999 435Z" fill="#FFDC40"/>
<path opacity="0.1" d="M683.032 220.492C681.802 220.879 680.606 221.383 679.46 222C677.234 220.722 675.888 219.381 676.007 218.359C676.519 214.321 689.021 196 689.021 196C690.895 196.536 692.806 196.903 694.737 197.099C696.749 211.242 686.688 219.585 683.032 220.492Z" fill="black"/>
<path opacity="0.1" d="M662 203.333L644.838 211.333L624.918 218C624.918 218 579.256 177.667 590.901 174.667C592.93 174.111 594.866 173.211 596.638 172C603.503 181.813 619.708 192 619.708 192C633.266 197.333 645.586 187.6 652.23 180.587C654.75 188.518 658.025 196.142 662 203.333V203.333Z" fill="black"/>
<path d="M680.625 220.813C676.639 221.79 658.55 232.872 658.55 232.872L647.205 253.731C647.205 253.731 647.512 265.464 647.205 273.286C646.899 281.108 638.314 280.13 638.314 280.13L637.897 280.313C635.701 281.29 625.399 285.892 625.399 285.997C625.399 286.101 604.28 283.715 604.28 283.715L562.889 276.545C562.889 276.545 549.704 275.893 545.412 271.33L545.289 271.2C541.144 266.702 542.714 263.456 549.398 257.968C556.082 252.479 550.931 243.953 550.931 243.953C550.931 243.953 547.252 229.938 547.252 221.464C547.252 212.991 543.266 213.316 543.266 213.316C543.266 213.316 540.506 213.316 552.771 204.843C565.035 196.369 551.238 156.932 555.53 162.473C559.822 168.014 567.794 165.08 568.407 161.821C569.021 158.562 581.591 166.058 581.591 166.058C581.591 166.058 587.11 162.473 588.95 166.058C589.357 167.016 590.084 167.779 590.991 168.201C591.897 168.622 592.917 168.671 593.856 168.339C596.922 179.095 619.611 193.109 619.611 193.109C639.847 200.931 657.323 175.836 657.323 175.836C657.323 175.836 664.068 177.791 664.988 180.75C665.908 183.71 673.573 183.566 673.573 183.566C673.573 183.566 682.771 184.635 683.078 187.569C683.385 190.502 692.276 194.413 692.276 194.413C695.955 210.383 684.611 219.835 680.625 220.813Z" fill="white"/>
<path opacity="0.1" d="M638 277.788L637.583 280.49C635.388 281.438 625.089 285.896 625.089 285.997C625.089 286.098 603.976 283.787 603.976 283.787L562.595 276.841C562.595 276.841 549.414 276.209 545.123 271.789L545 271.662L545.123 269.263L551.866 268C551.866 268 618.076 271.789 627.272 276.209L638 277.788Z" fill="black"/>
<path opacity="0.1" d="M662 394.622C662 396.246 661.927 397.163 661.927 397.163C661.927 397.163 649.086 375.877 632.271 386.356C628.421 388.917 623.915 390.114 619.394 389.775C617.09 389.564 614.837 388.935 612.73 387.915C609.187 386.189 606.047 383.644 603.533 380.462C603.533 380.462 574.184 387.011 564.095 395.853C554.006 404.695 545.751 393.233 545.751 393.233C545.751 393.233 542.878 406.686 539.295 410C534.537 407.852 530.38 405.284 531.077 403.058C532.605 398.145 543.306 374.24 543.306 374.24L597.419 369L612.803 383.553L613.011 372.602L654.589 376.859L661.927 394.543L662 394.622Z" fill="black"/>
<path d="M552.784 270C552.784 270 618.335 273.939 627.44 278.535L638.061 280.176L636.241 292.65C636.241 292.65 653.539 312.017 658.698 314.315C663.857 316.613 661.429 395.396 661.429 395.396C661.429 395.396 648.683 374.059 631.992 384.563C615.301 395.067 603.465 378.654 603.465 378.654C603.465 378.654 574.331 385.22 564.316 394.083C554.302 402.946 546.108 391.457 546.108 391.457C546.108 391.457 542.769 407.213 538.824 408.854C534.879 410.496 533.969 421 533.969 421C533.969 421 523.043 418.702 523.043 415.091C523.043 411.48 522.74 410.167 520.616 407.541C518.491 404.915 518.188 396.38 518.188 396.38C518.188 396.38 519.402 386.533 515.456 382.593C511.511 378.654 511.815 361.913 511.815 361.913C511.815 361.913 509.982 351.08 511.815 348.454C513.648 345.828 514.849 328.102 514.849 328.102C514.849 328.102 520.919 309.72 524.257 302.826C527.596 295.933 543.68 284.115 543.68 284.115H545.464L546.071 271.313L552.784 270Z" fill="#FFDC40"/>
<path d="M626 297C627.105 297 628 296.105 628 295C628 293.895 627.105 293 626 293C624.895 293 624 293.895 624 295C624 296.105 624.895 297 626 297Z" fill="#3F3D56"/>
<path d="M615.5 344C616.328 344 617 343.105 617 342C617 340.895 616.328 340 615.5 340C614.672 340 614 340.895 614 342C614 343.105 614.672 344 615.5 344Z" fill="#3F3D56"/>
<path d="M629 329C630.105 329 631 328.105 631 327C631 325.895 630.105 325 629 325C627.895 325 627 325.895 627 327C627 328.105 627.895 329 629 329Z" fill="#3F3D56"/>
<path opacity="0.1" d="M548.636 286H551C551 286 536.813 322.354 536.033 312.215C535.253 302.075 548.636 286 548.636 286Z" fill="black"/>
<path opacity="0.1" d="M565.971 289C565.971 289 548.994 315.855 557.278 319.692C565.561 323.528 573 290.279 573 290.279L565.971 289Z" fill="black"/>
<path opacity="0.1" d="M589 305C589 305 595.358 346.65 602.527 354.711C609.697 362.771 601.298 368.428 601.298 368.428C601.298 368.428 626.508 370.819 634.501 372.557C642.494 374.294 654.792 370.597 649.873 367.122C644.954 363.647 649.061 326.622 649.467 324.871C649.873 323.121 633.689 356.984 589 305Z" fill="#FFDC40"/>
<path opacity="0.1" d="M561 256C562.45 255.333 585.781 220.346 591.404 223.161C597.028 225.977 561 256 561 256Z" fill="black"/>
<path opacity="0.1" d="M565 225C565 225 554.518 240.134 557.551 242.766C560.584 245.398 565 225 565 225Z" fill="black"/>
<path opacity="0.1" d="M576 169C576 169 585.141 188.934 582.531 192.653C579.921 196.371 576 169 576 169Z" fill="black"/>
<path opacity="0.1" d="M680 196C680 196 678.476 207.558 676.445 207.989C674.413 208.42 680 196 680 196Z" fill="black"/>
<path opacity="0.1" d="M637 199C637 199 661.918 206.505 663.884 208.185C665.849 209.866 642.297 209.866 637 199Z" fill="black"/>
<path opacity="0.1" d="M732 219C732 219 728.927 205.785 724.883 206.003C720.839 206.22 732 219 732 219Z" fill="black"/>
<path d="M720.905 130.806C719.318 134.324 715.862 137.136 715.911 141.046C715.911 142.903 716.778 144.616 717.132 146.446C717.345 148.013 717.237 149.611 716.815 151.128C716.394 152.646 715.668 154.047 714.69 155.234C712.728 157.605 710.237 159.405 707.449 160.465C705.85 161.132 704.079 161.773 703.102 163.25C701.503 165.722 702.895 169.017 703.554 171.946C704.604 176.667 702.87 182.565 698.56 184.029C696.252 184.814 693.493 184.278 691.588 185.86C689.683 187.442 689.487 190.607 688.303 192.961C687.333 194.744 685.767 196.065 683.921 196.657C682.076 197.25 680.089 197.069 678.364 196.152C678.26 194.947 678.406 193.732 678.791 192.595C677.477 192.967 676.087 192.871 674.828 192.322C673.57 191.772 672.514 190.798 671.819 189.548C671.27 188.322 670.99 186.977 671 185.617C671.011 184.257 671.312 182.918 671.88 181.702C673.039 179.263 674.51 177.009 676.251 175.006C681.554 168.387 686.013 161.043 689.512 153.168C693.014 145.263 694.765 136.599 694.628 127.851C694.645 125.258 694.176 122.688 693.248 120.293C692.089 117.859 690.447 115.725 688.437 114.042C687.424 113.1 686.349 112.211 685.299 111.309C684.567 110.681 683.834 110.001 683.138 109.4C682.186 108.497 678.4 105.189 678.705 103.593C678.876 102.678 681.441 102.809 683.675 102.783C684.494 102.801 685.312 102.731 686.117 102.573C686.289 102.54 686.457 102.488 686.618 102.417C687.361 101.956 688.132 101.55 688.926 101.2C691.197 100.442 693.541 101.972 695.434 103.515C698.145 105.922 701.001 108.137 703.981 110.145C706.995 112.139 710.523 113.055 714.055 112.76C715.168 112.481 716.319 112.428 717.45 112.603C719.611 113.218 720.563 115.873 721.113 118.2C722.004 122.359 722.639 126.936 720.905 130.806Z" fill="#3F3D56"/>
<path d="M601.422 97.7068C600.95 97.7658 600.48 97.8527 600.017 97.9671C598.71 98.354 597.44 98.8636 596.219 99.4898C594.087 100.649 592.028 101.954 590.055 103.394L574.866 113.884C573.436 114.736 572.179 115.877 571.167 117.242C568.59 121.238 571.006 126.951 574.742 129.762C576.468 131.064 578.441 131.975 580.13 133.302C581.02 133.91 581.775 134.713 582.345 135.656C582.915 136.599 583.286 137.661 583.434 138.768C583.619 142.165 580.66 144.833 577.689 146.122C574.718 147.41 571.389 147.918 568.787 149.909C568.269 150.387 567.666 150.75 567.012 150.976C566.238 151.065 565.456 150.906 564.768 150.521C560.117 148.474 555.631 146.032 551.354 143.219C551.628 143.464 551.826 143.789 551.925 144.152C552.024 144.516 552.018 144.902 551.909 145.263C548.058 144.013 544.524 141.862 541.57 138.971C538.616 136.079 536.319 132.521 534.848 128.562C533.377 124.603 532.772 120.345 533.077 116.104C533.382 111.864 534.589 107.751 536.608 104.071C538.199 101.195 540.307 98.6049 541.54 95.5724C542.773 92.54 543.241 88.7787 541.54 86.0066C540.307 84.0674 538.15 82.7659 537.508 80.5404C536.867 78.3148 538.199 75.6468 539.814 73.8378C543.377 69.9333 548.296 67.5907 552.229 64.0246C556.162 60.4586 559.134 54.5499 556.902 49.6173C555.127 45.7129 550.355 42.8106 551.157 38.5548C551.687 36.6398 552.915 35.0251 554.572 34.0647C557.483 32.0921 560.823 30.9371 564.275 30.7094C567.727 30.4816 571.177 31.1886 574.298 32.7632C574.066 31.7908 574.127 30.7658 574.474 29.8321C574.821 28.8985 575.437 28.103 576.234 27.5573C577.058 27.0529 578.014 26.8426 578.96 26.9574C579.906 27.0723 580.792 27.5064 581.486 28.195C582.031 28.929 582.615 29.6286 583.237 30.2904C583.565 30.6004 583.995 30.763 584.434 30.7436C584.874 30.7241 585.289 30.5242 585.592 30.1863C585.79 29.786 585.88 29.3356 585.851 28.8848C585.932 26.4858 586.513 24.1352 587.552 22C591.998 28.8273 594.846 36.6713 595.859 44.8869C596.873 53.1025 596.025 61.4547 593.384 69.2566C592.431 71.4034 591.874 73.7224 591.744 76.0893C591.88 80.9959 596.232 84.64 600.596 86.3059L600.831 86.384C602.199 86.8525 604.529 87.256 606.798 87.9197C609.781 88.7917 612.654 90.1192 612.962 92.6051C613.628 96.6526 605.318 97.1472 601.422 97.7068Z" fill="#3F3D56"/>
<path d="M537.986 116.504C535.75 119.119 524.144 148.546 524.144 148.546C525.109 155.752 545.621 164.318 554.308 167.627C556.653 168.529 558.144 169.039 558.144 169.039L566.488 176.886C566.488 176.886 557.936 227.46 557.252 215.036C556.568 202.611 541.443 196.281 541.443 196.281C541.443 196.281 537.485 194.555 532.745 192.214C526.099 188.957 517.889 184.537 516.862 182.118C515.03 177.972 512.586 176.664 499.954 164.462C487.321 152.26 495.678 142.229 496.093 140.921C498.121 134.382 518.487 105.518 518.487 105.518L547.967 67.0286C547.967 67.0286 556.104 31.2857 576.555 45.2271C597.007 59.1686 553.257 92.5313 553.257 92.5313C553.257 92.5313 540.221 113.888 537.986 116.504Z" fill="#FBBEBE"/>
<path opacity="0.1" d="M566 176.377C566 176.377 557.636 227.593 556.967 215.011C556.298 202.429 541.507 196.018 541.507 196.018C541.507 196.018 537.636 194.27 533 191.899C534.493 180.165 545.509 171.808 554.088 167C556.382 167.914 557.84 168.43 557.84 168.43L566 176.377Z" fill="black"/>
<path d="M576.224 170.769L567.295 162C567.295 162 509.53 181.691 548.511 219H564.944L580 197.444L576.224 170.769Z" fill="white"/>
<path opacity="0.1" d="M652.593 179.249C652.716 179.681 652.851 180.113 652.987 180.559C644.335 182.885 635.225 182.386 626.843 179.126C618.462 175.866 611.199 169.997 606 162.283C608.963 158.822 611.657 155.111 614.057 151.187C614.057 151.187 659.331 148.895 652.248 160.358C649.525 164.799 650.461 172.056 652.593 179.249Z" fill="black"/>
<path d="M686 134C686 143.296 683.419 152.383 678.584 160.112C673.75 167.841 666.878 173.865 658.838 177.422C650.798 180.98 641.951 181.91 633.416 180.097C624.881 178.283 617.041 173.807 610.887 167.234C604.734 160.661 600.543 152.286 598.845 143.169C597.148 134.052 598.019 124.602 601.349 116.014C604.68 107.426 610.319 100.086 617.555 94.9213C624.791 89.7569 633.298 87.0004 642 87.0004C647.784 86.9762 653.516 88.1754 658.865 90.5288C664.213 92.8822 669.073 96.3433 673.163 100.712C677.253 105.082 680.493 110.272 682.696 115.986C684.9 121.699 686.022 127.821 686 134Z" fill="#FBBEBE"/>
<path opacity="0.1" d="M685.926 133.57C685.933 139.746 684.765 145.861 682.491 151.555C680.015 152.101 677.463 152.145 674.971 151.684C673.97 151.582 673.032 151.127 672.309 150.393C671.794 149.633 671.484 148.741 671.413 147.811C670.947 144.945 670.489 142.087 670.039 139.238C666.064 140.878 661.451 139.664 657.771 137.469C654.09 135.274 650.851 132.214 647.269 129.722C643.687 127.23 639.405 125.462 635.197 126.262C632.906 126.815 630.723 127.78 628.744 129.115C624.662 131.399 620.938 134.33 617.703 137.805C615.47 140.387 613.519 143.486 610.428 144.66C608.503 145.294 606.419 145.108 604.623 144.143C602.827 143.177 601.462 141.509 600.822 139.496C600.171 137.107 600.613 134.551 600.343 132.085C600.28 131.232 600.036 130.405 599.631 129.664C599.226 128.922 598.669 128.285 598 127.798C599.375 116.049 604.958 105.295 613.61 97.7299C622.261 90.1647 633.33 86.3587 644.557 87.0885C655.784 87.8182 666.323 93.0286 674.025 101.657C681.726 110.285 686.009 121.68 686 133.518L685.926 133.57Z" fill="black"/>
<path d="M600.561 130.829C600.83 133.326 600.391 135.915 601.037 138.334C601.673 140.372 603.03 142.062 604.815 143.04C606.601 144.017 608.673 144.206 610.586 143.564C613.659 142.374 615.598 139.21 617.818 136.621C621.035 133.102 624.736 130.134 628.794 127.821C630.761 126.469 632.931 125.492 635.209 124.932C639.392 124.121 643.636 125.964 647.209 128.436C650.783 130.907 653.941 134.019 657.649 136.281C661.356 138.543 665.905 139.733 669.844 138.072L671.21 146.754C671.281 147.696 671.589 148.6 672.1 149.369C672.82 150.113 673.752 150.574 674.747 150.677C677.775 151.251 680.886 151.058 683.833 150.115C684.574 149.964 685.277 149.644 685.892 149.174C686.506 148.704 687.019 148.098 687.394 147.395C687.626 146.734 687.75 146.035 687.76 145.329C688.811 128.636 686.404 111.9 680.711 96.3225C678.625 90.6478 675.966 84.96 671.478 81.2335C668.841 79.2308 665.971 77.6045 662.942 76.3956C653.819 72.2507 643.77 68.0273 634.245 70.9954C630.05 72.303 626.33 74.9181 622.672 77.5331L605.598 89.6802C604.689 90.2654 603.867 90.9925 603.159 91.8377C602.293 93.1364 601.668 94.6012 601.317 96.1526C599.57 102.026 597.222 107.674 594.317 112.994C593.636 114.035 593.186 115.229 593 116.485C593.005 117.647 593.246 118.794 593.707 119.845C594.585 122.29 594.927 124.108 596.927 125.546C598.927 126.984 600.244 128.004 600.561 130.829Z" fill="#3F3D56"/>
<g opacity="0.1">
<path opacity="0.1" d="M577.281 142.561C574.335 143.867 571.034 144.363 568.455 146.36C567.941 146.839 567.342 147.203 566.694 147.43C565.927 147.519 565.152 147.36 564.469 146.974C559.801 144.891 555.303 142.397 551.022 139.52C551.353 139.745 551.604 140.081 551.737 140.476C551.87 140.871 551.876 141.301 551.755 141.7C547.941 140.425 544.44 138.261 541.506 135.365C538.571 132.468 536.276 128.911 534.786 124.951C533.808 122.275 534.97 127.81 534.786 124.951C534.517 129.116 533.368 124.951 534.786 128.868C536.271 132.822 538.559 136.375 541.484 139.271C544.41 142.168 547.901 144.334 551.706 145.616C551.827 145.217 551.821 144.787 551.688 144.392C551.556 143.998 551.304 143.661 550.973 143.436C555.254 146.314 559.752 148.807 564.42 150.89C565.103 151.276 565.878 151.435 566.645 151.347C567.294 151.12 567.892 150.756 568.406 150.276C570.985 148.279 574.286 147.757 577.233 146.478C580.179 145.198 583.113 142.561 582.93 139.102C582.893 138.533 582.773 137.974 582.575 137.444C581.501 139.82 579.602 141.656 577.281 142.561V142.561Z" fill="black"/>
<path opacity="0.1" d="M591.23 72.3699C591.248 72.9294 591.322 73.4852 591.451 74.0278C591.816 72.4622 592.285 70.9266 592.856 69.4328C594.958 63.2482 595.917 56.6872 595.68 50.1129C595.497 55.3732 594.544 60.5706 592.856 65.5166C591.911 67.6699 591.36 69.9959 591.23 72.3699Z" fill="black"/>
<path opacity="0.1" d="M693.055 116.741C691.416 112.994 688.311 110.501 685.316 107.968C685.658 109.522 685.964 111.088 686.245 112.668C688.935 114.939 691.588 117.302 693.055 120.657C693.944 122.928 694.409 125.362 694.424 127.823C694.424 126.649 694.424 125.474 694.424 124.286C694.445 121.698 693.979 119.132 693.055 116.741V116.741Z" fill="black"/>
<path opacity="0.1" d="M556.095 48.6639C556.462 46.7449 557.44 47.5804 556.633 45.7659C555.3 42.8157 552.293 40.4398 551.229 37.6202C551.101 37.9305 551.002 38.2542 550.936 38.5862C550.141 42.8548 554.335 44.7346 556.095 48.6639C556.352 49.2252 555.007 45.8703 556.095 48.6639Z" fill="black"/>
<path opacity="0.1" d="M600.619 94.0657C600.207 94.1139 599.799 94.1924 599.397 94.3007C595.858 95.5352 592.524 97.3591 589.519 99.705L574.457 110.227C573.04 111.081 571.794 112.226 570.79 113.595C570.27 114.448 569.928 115.41 569.787 116.417C569.646 117.424 569.708 118.451 569.971 119.43C570.139 118.745 570.416 118.096 570.79 117.511C571.794 116.142 573.04 114.998 574.457 114.143L589.519 103.621C592.454 101.345 595.693 99.5537 599.128 98.3083C599.654 96.8985 600.155 95.4756 600.619 94.0657Z" fill="black"/>
<path opacity="0.1" d="M716.869 146.53C716.489 148.422 715.684 150.187 714.522 151.673C712.558 154.04 710.064 155.836 707.273 156.895C705.671 157.56 703.898 158.2 702.92 159.675C702.52 160.413 702.271 161.233 702.189 162.081C702.107 162.93 702.193 163.787 702.444 164.597C702.558 164.239 702.718 163.901 702.92 163.591C703.898 162.077 705.671 161.477 707.273 160.811C710.064 159.753 712.558 157.956 714.522 155.589C715.502 154.404 716.228 153.006 716.65 151.491C717.072 149.976 717.18 148.381 716.967 146.817C716.943 146.713 716.943 146.621 716.869 146.53Z" fill="black"/>
<path opacity="0.1" d="M720.733 127.288C719.143 130.8 715.684 133.606 715.732 137.509C715.747 138.164 715.842 138.813 716.014 139.441C716.857 136.504 719.424 134.089 720.733 131.204C721.742 128.744 722.085 126.03 721.723 123.372C721.599 124.727 721.264 126.051 720.733 127.288Z" fill="black"/>
<path opacity="0.1" d="M672.186 149.389C672.907 150.131 673.842 150.591 674.839 150.694C677.874 151.267 680.993 151.075 683.947 150.133C684.69 149.983 685.395 149.662 686.011 149.193C686.627 148.725 687.141 148.119 687.517 147.417C687.75 146.758 687.874 146.06 687.883 145.355C688.091 142.144 688.152 138.932 688.091 135.721C688.091 137.627 688.006 139.533 687.883 141.439C687.874 142.144 687.75 142.842 687.517 143.501C687.141 144.203 686.627 144.808 686.011 145.277C685.395 145.746 684.69 146.066 683.947 146.216C680.993 147.158 677.874 147.351 674.839 146.778C673.842 146.675 672.907 146.215 672.186 145.472C671.673 144.704 671.365 143.802 671.294 142.862C670.829 139.964 670.373 137.074 669.924 134.194C665.963 135.852 661.367 134.625 657.699 132.405C654.032 130.186 650.804 127.092 647.234 124.573C643.665 122.054 639.398 120.265 635.205 121.074C632.922 121.634 630.746 122.61 628.774 123.959C624.707 126.269 620.996 129.232 617.772 132.745C615.547 135.356 613.603 138.488 610.522 139.676C608.604 140.317 606.527 140.129 604.737 139.153C602.947 138.177 601.588 136.49 600.95 134.455C600.302 132.04 600.742 129.455 600.473 126.962C600.155 124.116 598.822 123.046 596.805 121.636C594.788 120.226 594.458 118.385 593.578 115.944C593.468 115.631 593.345 115.292 593.248 114.965C593.043 115.453 592.915 115.973 592.869 116.506C592.873 117.666 593.115 118.811 593.578 119.86C594.458 122.302 594.8 124.116 596.805 125.552C598.81 126.988 600.106 128.032 600.473 130.878C600.742 133.371 600.302 135.956 600.95 138.371C601.588 140.406 602.947 142.093 604.737 143.069C606.527 144.045 608.604 144.233 610.522 143.593C613.603 142.405 615.547 139.246 617.772 136.661C620.996 133.148 624.707 130.185 628.774 127.876C630.746 126.526 632.922 125.55 635.205 124.991C639.398 124.181 643.652 126.022 647.234 128.489C650.816 130.956 653.983 134.063 657.699 136.322C661.416 138.58 665.976 139.768 669.924 138.11C670.381 140.999 670.837 143.888 671.294 146.778C671.365 147.718 671.673 148.62 672.186 149.389V149.389Z" fill="black"/>
<path opacity="0.1" d="M698.373 180.418C696.062 181.201 693.299 180.666 691.392 182.246C689.485 183.825 689.289 186.984 688.103 189.334C687.132 191.113 685.564 192.433 683.717 193.024C681.869 193.615 679.88 193.435 678.152 192.519C678.048 191.316 678.194 190.104 678.58 188.968C677.265 189.34 675.872 189.245 674.613 188.696C673.353 188.147 672.295 187.175 671.599 185.927C671.32 185.389 671.111 184.814 670.976 184.217C670.536 186.111 670.758 188.111 671.599 189.843C672.295 191.091 673.353 192.063 674.613 192.612C675.872 193.161 677.265 193.256 678.58 192.885C678.194 194.02 678.048 195.232 678.152 196.435C679.88 197.351 681.869 197.532 683.717 196.94C685.564 196.349 687.132 195.03 688.103 193.25C689.326 190.9 689.411 187.807 691.392 186.162C693.372 184.517 696.062 185.117 698.373 184.334C702.444 182.95 704.216 177.651 703.519 173.095C703.03 176.41 701.294 179.426 698.373 180.418Z" fill="black"/>
</g>
<path d="M606 88.5249C604.662 91.977 602.952 95.2358 600.907 98.2296C600.461 98.2882 600.019 98.3745 599.581 98.4881C598.349 98.8722 597.151 99.3782 596 100C597.123 95.5348 598.589 91.1853 600.384 87C601.663 87.4652 603.86 87.8658 606 88.5249Z" fill="#6C63FF"/>
<path d="M688 114C687.149 113.097 686.246 112.244 685.364 111.379C684.851 108.87 684.338 105.872 684 103.201C684.688 103.219 685.375 103.151 686.051 103C687.188 106.512 687.847 110.228 688 114Z" fill="#6C63FF"/>
<path d="M1109.39 302.023C1109.77 301.827 1110.13 301.631 1110.5 301.409C1109.76 301.252 1109.01 301.069 1108.28 300.873C1107.75 301.03 1107.22 301.147 1106.68 301.278C1096.46 298.141 1087.2 292.155 1079.84 283.931C1072.39 275.525 1067.18 264.518 1067.29 253.08C1067.38 244.74 1070.23 236.609 1070.15 228.242C1070.06 219.876 1065.52 210.451 1057.57 209.509C1054.8 209.183 1052.03 209.954 1049.23 210.058C1046.44 210.163 1043.33 209.379 1041.91 206.908C1040.69 204.777 1041.01 202.006 1041.79 199.64C1043.91 193.247 1048.69 188.084 1050.74 181.665C1051.95 177.849 1052.14 173.747 1051.28 169.821C1050.58 166.553 1048.95 163.285 1046.11 161.703C1041.4 159.089 1035.8 162.122 1030.57 163.181C1021.61 165.011 1012.52 160.841 1004.81 155.742C997.096 150.644 989.872 144.448 981.197 141.454C975.51 139.67 969.598 138.849 963.675 139.023C960.015 139.023 956.049 139.336 953.352 141.886C953.218 142.016 953.121 142.16 952.986 142.291C953.248 141.483 953.605 140.714 954.048 140.003C953.644 140.265 953.264 140.567 952.913 140.905C947.313 146.199 951.229 156.304 947.935 163.39C947.565 164.173 947.115 164.91 946.593 165.586C947.376 164.944 948.103 164.226 948.765 163.442C948.643 163.756 948.533 164.069 948.386 164.383C946.495 168.462 942.493 170.919 938.625 172.933C934.757 174.946 930.547 176.789 927.753 180.253C927.68 180.332 927.631 180.41 927.558 180.502C928.034 179.248 928.693 178.083 929.51 177.05C928.711 177.711 927.971 178.45 927.302 179.26C924.239 183.064 924.007 186.227 925.374 188.659C926.35 191.443 929.327 193.417 932.805 194.45C932.634 195.273 932.475 196.097 932.341 196.934C932.038 199.01 931.883 201.107 931.877 203.208C931.877 222.503 944.836 238.648 962.187 242.74C962.187 243.576 962.089 244.426 961.991 245.354C961.406 251.289 959.697 257.721 955.219 259.289C951.034 257.76 942.651 264.518 940.772 266.479C938.893 268.44 932.231 266.688 926.13 266.911C920.029 267.133 917.967 265.172 917.967 265.172C917.416 268.698 917.342 272.29 917.748 275.839C918.382 282.375 913.355 282.597 913.355 282.597C913.355 282.597 914.404 291.97 912.135 296.755C910.771 299.5 910.19 302.614 910.463 305.71C910.463 305.71 917.577 305.056 916.942 307.67C916.901 307.975 916.916 308.286 916.987 308.584C917.058 308.883 917.184 309.163 917.357 309.409L917.284 311.906L916.32 346.443L914.441 367.032C913.967 367.183 913.532 367.447 913.169 367.805C912.805 368.163 912.522 368.605 912.342 369.098C910.646 373.229 907.913 378.732 905.765 382.942C897.041 388.602 883.936 399.099 887.646 409.191C893.088 424.015 900.836 422.055 905.436 420.303C910.036 418.551 918.26 404.838 918.26 404.838C918.26 404.838 920.981 399.387 923.068 399.387C924.184 399.334 925.297 399.208 926.399 399.008C926.399 399.243 926.399 399.387 926.399 399.387C926.399 399.387 922.006 417.911 923.47 422.486C924.934 427.061 923.678 432.944 923.678 432.944C923.678 432.944 922.457 446.448 924.092 450.814C925.728 455.18 921.823 466.906 921.823 466.906C921.823 466.906 922.946 467.272 924.886 467.782C924.739 468.527 924.568 469.351 924.385 470.266C921.823 483.247 917.223 512.882 922.457 537.275C922.457 537.275 925.386 550.348 925.801 553.851C926.216 557.354 928.729 560.387 927.021 568.231C925.313 576.074 930.364 590.467 930.364 590.467C930.364 590.467 932.878 604.193 931.414 610.507C929.949 616.821 946.69 687.635 946.69 687.635L949.423 687.216L950.034 689.739L952.755 700.982L953.047 702.21C951.128 702.707 949.414 703.864 948.167 705.505C948.167 705.505 940.846 723.375 931.633 728.381C929.193 729.689 926.203 731.44 923.324 733.336C915.1 738.722 908.047 745.206 920.029 745.376C933.158 745.559 954.731 746.304 962.467 746.578C964.114 747.533 966.884 748.082 971.192 747.99C992.74 747.559 1023.31 745.153 1023.94 742.983C1024.25 741.924 1022.96 739.676 1021.57 737.65C1020.18 735.624 1018.49 733.61 1018.49 733.61L1017.86 713.78C1017.86 713.78 1016.11 712.08 1013.39 709.74L1013.29 708.354L1011.92 689.229L1011.74 686.615C1012.66 686.406 1013.53 686.001 1014.3 685.425L1015.78 665.621C1015.78 665.621 1024.77 632.508 1013.26 600.036C1013.26 600.036 1003.22 577.604 1005.94 569.538L1006.37 552.322C1006.37 552.322 1011.18 532.046 1013.48 526.608C1016.66 518.216 1019.06 509.512 1020.66 500.62C1028.92 486.58 1027.56 467.939 1027.56 467.939L1033.42 448.33L1041.58 423.283C1041.58 423.283 1043.89 408.028 1044.73 404.982C1045.57 401.936 1044.73 385.373 1044.73 385.373C1044.73 385.373 1051.81 324.978 1045.89 301.383V300.481H1045.95C1045.95 300.481 1045.95 299.984 1045.95 299.173C1046.05 299.056 1052.39 291.97 1049.49 290.023C1047.05 288.402 1042.67 281.16 1039.33 276.833C1038.87 276.27 1038.46 275.761 1038.11 275.303C1042.11 271.996 1045.52 267.939 1048.17 263.329C1049.2 261.538 1050.45 259.407 1052.46 259.315C1053.53 259.343 1054.57 259.711 1055.45 260.374C1070.78 270.218 1073.25 294.833 1089.41 303.108C1092.81 304.8 1096.53 305.621 1100.28 305.505C1104.03 305.39 1107.7 304.341 1111 302.442L1109.39 302.023ZM986.688 695.687L986.554 696.994C986.015 697.193 985.502 697.465 985.028 697.805C985.028 697.805 982.93 709.348 981.673 710.224C981.017 711.107 980.494 712.095 980.123 713.152L979.818 712.564C979.721 712.799 979.611 713.034 979.513 713.283L978.952 712.185L978.793 710.877L975.304 681.974C975.011 677.752 974.157 663.764 975.401 656.418C976.865 647.698 976.621 617.2 967.238 605.004C967.238 605.004 962.845 593.892 966.823 586.702L967.446 541.367L968.91 539.837L969.117 581.669C969.822 590.524 973.118 598.915 978.537 605.644L980.013 627.645C980.013 627.645 981.234 651.607 985.028 664.902V685.386C985.028 685.386 986.041 685.569 987.664 685.818L987.408 688.432L986.688 695.687Z" fill="url(#paint1_linear)"/>
<path d="M1011 258.859L1002.2 279.511L998.954 281.512L977.058 295C977.058 295 949.458 292.199 948.648 291.773C947.839 291.347 946.539 266.681 953.678 261.492C954.071 261.196 954.506 260.965 954.966 260.808V260.808C959.345 259.259 961.013 252.909 961.59 247.049C961.676 246.184 961.737 245.345 961.774 244.467C961.95 241.725 961.95 238.974 961.774 236.232C961.774 236.232 968.471 229.185 976.494 221.892C990.711 208.984 1009.1 195.367 1002.05 218.588C1000.74 222.771 999.784 227.063 999.175 231.418C999.028 232.437 998.93 233.431 998.856 234.373C997.997 245.809 1001.4 251.979 1004.82 255.258C1005.19 255.619 1005.57 255.929 1005.93 256.226C1007.43 257.47 1009.15 258.367 1011 258.859V258.859Z" fill="#CF6F80"/>
<path d="M978 712.522L974.939 714L954.331 709.12L952.494 701.526L949.837 690.568L948 683H974.437L977.841 711.197L978 712.522Z" fill="#CF6F80"/>
<path opacity="0.1" d="M975.031 714L954.803 709.138L953 701.521C960.668 699.097 971.834 705.914 971.834 705.914C971.101 708.605 976.858 710.788 977.844 711.156L978 712.426L975.031 714Z" fill="black"/>
<path opacity="0.1" d="M985 724.914L970.073 740.504L964.805 746L961.949 745.895C956.569 742.679 963.544 734.864 968.206 730.528C969.121 729.671 969.95 728.96 970.58 728.432C973.919 725.652 977.048 717.731 979.052 713L985 724.914Z" fill="black"/>
<path opacity="0.1" d="M979.052 713L985 724.861L970.073 740.452L964.805 746L961.949 745.895C956.569 742.679 963.544 734.864 968.206 730.528C969.121 729.671 969.95 728.96 970.58 728.432C973.919 725.652 977.048 717.731 979.052 713Z" fill="black"/>
<path opacity="0.1" d="M1012 714L985 705.003L985.804 697.409C992.843 695.009 1005.08 703.731 1011.62 709.021L1012 714Z" fill="black"/>
<path d="M985 726.587L970.304 742.419L965.118 748C965.118 748 936.907 746.889 921.201 746.662C909.585 746.488 916.416 739.85 924.391 734.336C927.191 732.395 930.125 730.602 932.451 729.264C941.375 724.138 948.474 705.843 948.474 705.843C955.17 696.475 972.021 707.181 972.021 707.181C971.205 710.3 978.304 712.762 978.304 712.762L985 726.587Z" fill="#3F3D56"/>
<path opacity="0.1" d="M970 742.282L964.842 748C964.842 748 936.787 746.862 921.167 746.629C909.615 746.451 916.408 739.649 924.339 734C928.613 735.097 932.912 737.428 934.365 742.227L970 742.282Z" fill="black"/>
<path d="M1012 714L985 704.216L985.804 695.959L986.498 688.745L987.436 679H1009.56L1010.29 689.501L1011.62 708.586L1012 714Z" fill="#CF6F80"/>
<path d="M1021.95 744.027C1021.34 746.178 991.514 748.563 970.486 748.991C952.227 749.367 962.116 738.026 968.133 732.479C969.04 731.637 969.861 730.937 970.486 730.419C975.179 726.53 979.468 712.481 980.694 711.626C981.919 710.771 983.966 699.314 983.966 699.314C993.156 692.393 1016.02 715.073 1016.02 715.073L1016.64 734.734C1016.64 734.734 1018.2 736.614 1019.65 738.739C1021.1 740.865 1022.25 742.977 1021.95 744.027Z" fill="#3F3D56"/>
<path opacity="0.1" d="M1021.96 744.184C1021.34 746.267 991.516 748.577 970.487 748.991C952.227 749.355 962.117 738.372 968.134 733C972.769 735.007 976.766 738.298 979.678 742.502H1003.16C1003.16 742.502 1014.48 740.82 1019.65 739.063C1021 741.008 1022.25 743.167 1021.96 744.184Z" fill="black"/>
<path opacity="0.1" d="M974.738 683C974.875 685.157 975 686.535 975 686.535L949.869 690L948 683H974.738Z" fill="black"/>
<path opacity="0.1" d="M1010 690.168C1003.94 692.069 991.232 690.237 986 689.363L986.946 679H1009.26L1010 690.168Z" fill="black"/>
<path d="M1012.12 601.301C1023.37 633.815 1014.58 666.971 1014.58 666.971L1013.14 686.827C1008.03 691.186 984.509 686.827 984.509 686.827V666.316C980.826 653.004 979.599 629.011 979.599 629.011L978.163 606.982C972.847 600.183 969.632 591.799 968.958 582.976L968.749 541.09L967.325 542.621L966.712 588.002C962.821 595.201 967.117 606.327 967.117 606.327C976.322 618.54 976.531 649.077 975.095 657.808C973.659 666.539 975.095 684.641 975.095 684.641L947.073 689C947.073 689 930.7 618.108 932.136 611.773C933.572 605.437 931.117 591.707 931.117 591.707C931.117 591.707 926.208 577.308 927.84 569.455C929.473 561.601 927.018 558.551 926.613 555.056C926.208 551.562 923.336 538.472 923.336 538.472C918.23 514.047 922.722 484.374 925.226 471.376C926.024 467.2 926.613 464.74 926.613 464.74C926.613 464.74 1002.71 441.179 1015.6 460.813C1017.12 463.187 1018.3 465.795 1019.08 468.549C1025.38 489.767 1014.31 522.974 1012.32 527.791C1010.08 533.236 1005.37 553.525 1005.37 553.525L1004.96 570.764C1002.31 578.84 1012.12 601.301 1012.12 601.301Z" fill="#3F3D56"/>
<path d="M992.5 635C992.776 635 993 634.328 993 633.5C993 632.672 992.776 632 992.5 632C992.224 632 992 632.672 992 633.5C992 634.328 992.224 635 992.5 635Z" fill="#6C63FF"/>
<path d="M952 656C952.552 656 953 655.552 953 655C953 654.448 952.552 654 952 654C951.448 654 951 654.448 951 655C951 655.552 951.448 656 952 656Z" fill="#6C63FF"/>
<path d="M949 642C949.552 642 950 641.776 950 641.5C950 641.224 949.552 641 949 641C948.448 641 948 641.224 948 641.5C948 641.776 948.448 642 949 642Z" fill="#6C63FF"/>
<path d="M954.5 643C954.776 643 955 642.776 955 642.5C955 642.224 954.776 642 954.5 642C954.224 642 954 642.224 954 642.5C954 642.776 954.224 643 954.5 643Z" fill="#6C63FF"/>
<path d="M952 651C952.552 651 953 650.552 953 650C953 649.448 952.552 649 952 649C951.448 649 951 649.448 951 650C951 650.552 951.448 651 952 651Z" fill="#6C63FF"/>
<path d="M989 649C989.552 649 990 648.552 990 648C990 647.448 989.552 647 989 647C988.448 647 988 647.448 988 648C988 648.552 988.448 649 989 649Z" fill="#6C63FF"/>
<path d="M1005.5 654C1006.33 654 1007 653.552 1007 653C1007 652.448 1006.33 652 1005.5 652C1004.67 652 1004 652.448 1004 653C1004 653.552 1004.67 654 1005.5 654Z" fill="#6C63FF"/>
<path d="M1011 648C1011.55 648 1012 647.776 1012 647.5C1012 647.224 1011.55 647 1011 647C1010.45 647 1010 647.224 1010 647.5C1010 647.776 1010.45 648 1011 648Z" fill="#6C63FF"/>
<path d="M993.5 644C993.776 644 994 643.552 994 643C994 642.448 993.776 642 993.5 642C993.224 642 993 642.448 993 643C993 643.552 993.224 644 993.5 644Z" fill="#6C63FF"/>
<path d="M960.5 639C960.776 639 961 638.552 961 638C961 637.448 960.776 637 960.5 637C960.224 637 960 637.448 960 638C960 638.552 960.224 639 960.5 639Z" fill="#6C63FF"/>
<path d="M967.5 643C967.776 643 968 642.776 968 642.5C968 642.224 967.776 642 967.5 642C967.224 642 967 642.224 967 642.5C967 642.776 967.224 643 967.5 643Z" fill="#6C63FF"/>
<path d="M955.5 666C955.776 666 956 665.552 956 665C956 664.448 955.776 664 955.5 664C955.224 664 955 664.448 955 665C955 665.552 955.224 666 955.5 666Z" fill="#6C63FF"/>
<path d="M959 676C959.552 676 960 675.776 960 675.5C960 675.224 959.552 675 959 675C958.448 675 958 675.224 958 675.5C958 675.776 958.448 676 959 676Z" fill="#6C63FF"/>
<path d="M968 680C968.552 680 969 679.552 969 679C969 678.448 968.552 678 968 678C967.448 678 967 678.448 967 679C967 679.552 967.448 680 968 680Z" fill="#6C63FF"/>
<path d="M962 680C962.552 680 963 679.776 963 679.5C963 679.224 962.552 679 962 679C961.448 679 961 679.224 961 679.5C961 679.776 961.448 680 962 680Z" fill="#6C63FF"/>
<path d="M957.5 686C958.328 686 959 685.552 959 685C959 684.448 958.328 684 957.5 684C956.672 684 956 684.448 956 685C956 685.552 956.672 686 957.5 686Z" fill="#6C63FF"/>
<path d="M961.5 650C961.776 650 962 649.776 962 649.5C962 649.224 961.776 649 961.5 649C961.224 649 961 649.224 961 649.5C961 649.776 961.224 650 961.5 650Z" fill="#6C63FF"/>
<path d="M961.5 661C961.776 661 962 660.552 962 660C962 659.448 961.776 659 961.5 659C961.224 659 961 659.448 961 660C961 660.552 961.224 661 961.5 661Z" fill="#6C63FF"/>
<path d="M967 667C967.552 667 968 666.776 968 666.5C968 666.224 967.552 666 967 666C966.448 666 966 666.224 966 666.5C966 666.776 966.448 667 967 667Z" fill="#6C63FF"/>
<path d="M962 671C962.552 671 963 670.552 963 670C963 669.448 962.552 669 962 669C961.448 669 961 669.448 961 670C961 670.552 961.448 671 962 671Z" fill="#6C63FF"/>
<path d="M952.5 686C952.776 686 953 685.552 953 685C953 684.448 952.776 684 952.5 684C952.224 684 952 684.448 952 685C952 685.552 952.224 686 952.5 686Z" fill="#6C63FF"/>
<path d="M967.5 673C967.776 673 968 672.552 968 672C968 671.448 967.776 671 967.5 671C967.224 671 967 671.448 967 672C967 672.552 967.224 673 967.5 673Z" fill="#6C63FF"/>
<path d="M1005.5 641C1006.33 641 1007 640.776 1007 640.5C1007 640.224 1006.33 640 1005.5 640C1004.67 640 1004 640.224 1004 640.5C1004 640.776 1004.67 641 1005.5 641Z" fill="#6C63FF"/>
<path d="M997.5 654C998.328 654 999 653.552 999 653C999 652.448 998.328 652 997.5 652C996.672 652 996 652.448 996 653C996 653.552 996.672 654 997.5 654Z" fill="#6C63FF"/>
<path d="M992.5 672C992.776 672 993 671.776 993 671.5C993 671.224 992.776 671 992.5 671C992.224 671 992 671.224 992 671.5C992 671.776 992.224 672 992.5 672Z" fill="#6C63FF"/>
<path d="M990.5 684C990.776 684 991 683.776 991 683.5C991 683.224 990.776 683 990.5 683C990.224 683 990 683.224 990 683.5C990 683.776 990.224 684 990.5 684Z" fill="#6C63FF"/>
<path d="M1000 647C1000.55 647 1001 646.328 1001 645.5C1001 644.672 1000.55 644 1000 644C999.448 644 999 644.672 999 645.5C999 646.328 999.448 647 1000 647Z" fill="#6C63FF"/>
<path d="M997 659C997.552 659 998 658.552 998 658C998 657.448 997.552 657 997 657C996.448 657 996 657.448 996 658C996 658.552 996.448 659 997 659Z" fill="#6C63FF"/>
<path d="M999.5 668C999.776 668 1000 667.776 1000 667.5C1000 667.224 999.776 667 999.5 667C999.224 667 999 667.224 999 667.5C999 667.776 999.224 668 999.5 668Z" fill="#6C63FF"/>
<path d="M986.5 678C986.776 678 987 677.776 987 677.5C987 677.224 986.776 677 986.5 677C986.224 677 986 677.224 986 677.5C986 677.776 986.224 678 986.5 678Z" fill="#6C63FF"/>
<path d="M993.5 675C993.776 675 994 674.776 994 674.5C994 674.224 993.776 674 993.5 674C993.224 674 993 674.224 993 674.5C993 674.776 993.224 675 993.5 675Z" fill="#6C63FF"/>
<path d="M991.5 678C991.776 678 992 677.552 992 677C992 676.448 991.776 676 991.5 676C991.224 676 991 676.448 991 677C991 677.552 991.224 678 991.5 678Z" fill="#6C63FF"/>
<path d="M1005.5 674C1006.33 674 1007 673.776 1007 673.5C1007 673.224 1006.33 673 1005.5 673C1004.67 673 1004 673.224 1004 673.5C1004 673.776 1004.67 674 1005.5 674Z" fill="#6C63FF"/>
<path d="M1005.5 677C1006.33 677 1007 676.552 1007 676C1007 675.448 1006.33 675 1005.5 675C1004.67 675 1004 675.448 1004 676C1004 676.552 1004.67 677 1005.5 677Z" fill="#6C63FF"/>
<path d="M997.5 684C998.328 684 999 683.776 999 683.5C999 683.224 998.328 683 997.5 683C996.672 683 996 683.224 996 683.5C996 683.776 996.672 684 997.5 684Z" fill="#6C63FF"/>
<path d="M995 687C995.552 687 996 686.552 996 686C996 685.448 995.552 685 995 685C994.448 685 994 685.448 994 686C994 686.552 994.448 687 995 687Z" fill="#6C63FF"/>
<path d="M1001 678C1001.55 678 1002 677.776 1002 677.5C1002 677.224 1001.55 677 1001 677C1000.45 677 1000 677.224 1000 677.5C1000 677.776 1000.45 678 1001 678Z" fill="#6C63FF"/>
<path d="M994.5 683C994.776 683 995 682.552 995 682C995 681.448 994.776 681 994.5 681C994.224 681 994 681.448 994 682C994 682.552 994.224 683 994.5 683Z" fill="#6C63FF"/>
<path d="M1009 672C1009.55 672 1010 671.776 1010 671.5C1010 671.224 1009.55 671 1009 671C1008.45 671 1008 671.224 1008 671.5C1008 671.776 1008.45 672 1009 672Z" fill="#6C63FF"/>
<path d="M1010.5 677C1010.78 677 1011 676.552 1011 676C1011 675.448 1010.78 675 1010.5 675C1010.22 675 1010 675.448 1010 676C1010 676.552 1010.22 677 1010.5 677Z" fill="#6C63FF"/>
<path d="M999 675C999.552 675 1000 674.776 1000 674.5C1000 674.224 999.552 674 999 674C998.448 674 998 674.224 998 674.5C998 674.776 998.448 675 999 675Z" fill="#6C63FF"/>
<path d="M1001 685C1001.55 685 1002 684.552 1002 684C1002 683.448 1001.55 683 1001 683C1000.45 683 1000 683.448 1000 684C1000 684.552 1000.45 685 1001 685Z" fill="#6C63FF"/>
<path d="M1005.5 683C1006.33 683 1007 682.552 1007 682C1007 681.448 1006.33 681 1005.5 681C1004.67 681 1004 681.448 1004 682C1004 682.552 1004.67 683 1005.5 683Z" fill="#6C63FF"/>
<path d="M1005 687C1005.55 687 1006 686.552 1006 686C1006 685.448 1005.55 685 1005 685C1004.45 685 1004 685.448 1004 686C1004 686.552 1004.45 687 1005 687Z" fill="#6C63FF"/>
<path d="M1001 687C1001.55 687 1002 686.776 1002 686.5C1002 686.224 1001.55 686 1001 686C1000.45 686 1000 686.224 1000 686.5C1000 686.776 1000.45 687 1001 687Z" fill="#6C63FF"/>
<path d="M1005 665C1005.55 665 1006 664.552 1006 664C1006 663.448 1005.55 663 1005 663C1004.45 663 1004 663.448 1004 664C1004 664.552 1004.45 665 1005 665Z" fill="#6C63FF"/>
<path d="M949 672C949.552 672 950 671.776 950 671.5C950 671.224 949.552 671 949 671C948.448 671 948 671.224 948 671.5C948 671.776 948.448 672 949 672Z" fill="#6C63FF"/>
<path d="M949 675C949.552 675 950 674.552 950 674C950 673.448 949.552 673 949 673C948.448 673 948 673.448 948 674C948 674.552 948.448 675 949 675Z" fill="#6C63FF"/>
<path d="M952 669C952.552 669 953 668.776 953 668.5C953 668.224 952.552 668 952 668C951.448 668 951 668.224 951 668.5C951 668.776 951.448 669 952 669Z" fill="#6C63FF"/>
<path d="M954.5 680C954.776 680 955 679.552 955 679C955 678.448 954.776 678 954.5 678C954.224 678 954 678.448 954 679C954 679.552 954.224 680 954.5 680Z" fill="#6C63FF"/>
<path d="M953.5 675C953.776 675 954 674.552 954 674C954 673.448 953.776 673 953.5 673C953.224 673 953 673.448 953 674C953 674.552 953.224 675 953.5 675Z" fill="#6C63FF"/>
<path d="M949 680C949.552 680 950 679.776 950 679.5C950 679.224 949.552 679 949 679C948.448 679 948 679.224 948 679.5C948 679.776 948.448 680 949 680Z" fill="#6C63FF"/>
<path d="M947.5 663C947.776 663 948 662.552 948 662C948 661.448 947.776 661 947.5 661C947.224 661 947 661.448 947 662C947 662.552 947.224 663 947.5 663Z" fill="#6C63FF"/>
<path opacity="0.1" d="M964 466.692L966.415 533L969.062 531.258L971 463L964 466.692Z" fill="black"/>
<path d="M930.588 376.798C930.588 376.798 916.588 362.622 913.544 370.259C910.501 377.896 904 390.307 904 390.307L919.424 406C919.424 406 922.066 400.547 924.087 400.547C926.747 400.281 929.389 399.845 932 399.239L930.588 376.798Z" fill="#CF6F80"/>
<path d="M940 318.149L930.493 393L926.924 387.275L915 368.128L916.859 347.565L917.814 313.268L918.099 303L940 318.149Z" fill="#CF6F80"/>
<path opacity="0.1" d="M1001.48 218.576C999.888 223.691 998.842 228.983 998.36 234.352C994.875 238.643 990.576 242.081 985.752 244.435C980.928 246.79 975.692 248.005 970.395 248C967.569 247.997 964.753 247.651 962 246.968C962.329 243.392 962.369 239.793 962.12 236.21C962.12 236.21 1012.27 182.237 1001.48 218.576Z" fill="black"/>
<path d="M1008 204.511C1008.01 214.15 1004.79 223.475 998.904 230.797C995.381 235.182 991.023 238.72 986.119 241.178C980.327 244.068 973.945 245.354 967.562 244.917C961.179 244.479 955.003 242.333 949.607 238.677C944.21 235.021 939.767 229.972 936.689 224C933.611 218.028 931.998 211.325 932 204.511C932.001 202.413 932.153 200.318 932.454 198.244C933.928 188.168 938.918 179.057 946.426 172.731C953.934 166.405 963.407 163.33 972.951 164.122C982.494 164.914 991.406 169.514 997.904 177.002C1004.4 184.49 1008.01 194.314 1008 204.511V204.511Z" fill="#CF6F80"/>
<path opacity="0.1" d="M929.441 323.55C925.136 319.499 920.314 315.878 919 313.268L919.27 303L940 318.149L931.002 393L927.682 387.275C927.869 383.381 928.292 379.694 929.113 377.864C931.459 372.671 929.699 364.662 929.699 362.065C929.699 359.469 933.02 355.354 932.82 353.627C932.602 350.003 932.21 346.393 931.647 342.814C930.814 338.699 934.721 328.534 929.441 323.55Z" fill="black"/>
<path opacity="0.1" d="M1018 468.464V468.581C1018 468.581 991.439 464.025 970.764 471.836C953.811 478.241 932.212 473.268 925 471.276C925.791 467.123 926.374 464.676 926.374 464.676C926.374 464.676 1001.78 441.243 1014.55 460.77C1016.06 463.131 1017.22 465.726 1018 468.464V468.464Z" fill="black"/>
<path opacity="0.1" d="M1011 258.589L1002.2 279.395L977.058 295C977.058 295 949.458 292.178 948.648 291.749C947.839 291.32 946.539 266.469 953.678 261.242C951.666 267.25 949.47 279.447 964.387 280.475C980.487 277.944 994.999 268.791 1004.78 255C1006.53 256.737 1008.67 257.973 1011 258.589Z" fill="black"/>
<path d="M1043.8 300.832L1043.39 310.632L1018.99 466.558C1018.99 466.558 992.365 461.985 971.628 469.825C950.892 477.665 923.239 468.518 923.239 468.518C923.239 468.518 927.106 456.758 925.483 452.407C923.861 448.055 925.068 434.544 925.068 434.544C925.068 434.544 926.288 428.664 924.873 424.091C923.458 419.518 927.715 401.002 927.715 401.002C927.715 401.002 926.703 381.193 929.143 375.966C931.582 370.739 929.752 362.677 929.752 360.064C929.752 357.45 933.205 353.308 932.997 351.57C932.771 347.921 932.363 344.288 931.777 340.686C930.972 336.543 935.034 326.312 929.545 321.294C924.056 316.277 917.75 311.939 918.36 309.325C918.969 306.712 912.065 307.365 912.065 307.365C911.797 304.281 912.36 301.179 913.688 298.427C915.92 293.645 914.907 284.276 914.907 284.276C914.907 284.276 919.787 284.054 919.177 277.521C918.78 273.974 918.85 270.384 919.384 266.858C919.384 266.858 921.409 268.818 927.313 268.596C933.217 268.374 939.706 270.125 941.536 268.165C943.366 266.205 951.502 259.449 955.564 260.978C955.246 261.644 945.525 282.329 964.932 283.61C973.175 282.301 981.084 279.213 988.179 274.532C995.275 269.851 1001.41 263.675 1006.21 256.379C1006.21 256.379 1008.44 253.765 1015.76 262.272C1023.08 270.778 1029.37 267.498 1029.37 267.498L1037.51 268.152C1037.51 268.152 1032.23 272.934 1035.47 276.201C1036.16 276.916 1036.8 277.68 1037.39 278.488C1040.64 282.813 1044.93 290.052 1047.27 291.672C1050.1 293.645 1043.8 300.832 1043.8 300.832Z" fill="#FFDC40"/>
<path d="M914.634 380C914.634 380 884.269 395.761 889.636 410.641C895.002 425.522 902.649 423.565 907.197 421.805C911.746 420.045 920 406.268 920 406.268L914.634 380Z" fill="#CF6F80"/>
<path opacity="0.1" d="M998.5 293C998.5 294.392 990.625 311.949 998.5 316.5C1006.37 321.052 998.5 293 998.5 293Z" fill="black"/>
<path opacity="0.1" d="M938 286C938 286 927.798 299.492 932.027 300.912C936.255 302.333 938 286 938 286Z" fill="black"/>
<path d="M1011.26 311.114C1011.26 311.114 1015.93 341.94 1016.14 351.056C1016.34 360.172 1017.56 374.927 1017.56 374.927C1017.56 374.927 1021.02 410.089 1015.73 424.414C1010.45 438.739 1011.26 454.367 1011.26 454.367C1011.26 454.367 995.797 486.494 993.565 489.75C991.332 493.006 995.395 523.831 1011.66 510.808C1027.92 497.785 1025.9 469.343 1025.9 469.343L1031.6 449.809L1039.53 424.857C1039.53 424.857 1041.76 409.659 1042.58 406.625C1043.39 403.59 1042.58 387.09 1042.58 387.09C1042.58 387.09 1052.13 303.522 1039.32 294.835C1026.51 286.149 1011.26 311.114 1011.26 311.114Z" fill="#CF6F80"/>
<path opacity="0.1" d="M1010.96 321C1010.96 321 1029.77 299.152 1035.57 301.06C1041.37 302.969 1042.98 302.129 1042.98 302.129C1042.98 302.129 1043.77 290.041 1035.18 285.587C1026.58 281.134 1017.17 267.557 1009.96 283.679C1002.76 299.801 1010.96 321 1010.96 321Z" fill="black"/>
<path d="M1010.96 320C1010.96 320 1029.77 297.181 1035.57 299.174C1041.37 301.168 1042.98 300.291 1042.98 300.291C1042.98 300.291 1043.77 287.665 1035.18 283.013C1026.58 278.362 1017.17 264.181 1009.96 281.02C1002.76 297.859 1010.96 320 1010.96 320Z" fill="#FFDC40"/>
<path opacity="0.1" d="M1037.91 278.835C1036.49 280.136 1034.99 281.328 1033.41 282.401C1029.46 285.103 1025.02 286.897 1020.38 287.665C1016.46 288.282 1012.47 288.045 1008.64 286.967C1005.23 286.045 1002.02 284.461 999.153 282.296C996.187 280.084 993.73 277.192 991.965 273.835C991.717 273.361 991.493 272.887 991.282 272.413C987.111 263.097 988.228 252.004 986.391 241.727C986.254 241.003 986.105 240.266 985.944 239.542C984.494 232.681 981.169 226.424 976.384 221.554C969.742 214.751 960.791 210.619 951.554 205.487C946.178 202.487 941.622 200.105 935.513 199.263C934.323 199.103 933.147 198.834 932 198.46C932.923 192.233 935.195 186.318 938.638 181.178C942.08 176.039 946.6 171.815 951.841 168.837C957.083 165.86 962.904 164.211 968.848 164.019C974.792 163.827 980.698 165.098 986.1 167.731C991.503 170.365 996.257 174.29 999.988 179.198C1003.72 184.106 1006.33 189.863 1007.61 196.019C1008.89 202.174 1008.8 208.561 1007.36 214.676C1005.92 220.791 1003.16 226.47 999.302 231.265C999.153 232.305 999.054 233.318 998.979 234.279C998.11 245.937 1001.55 252.227 1005.01 255.57C1005.39 255.938 1005.77 256.254 1006.14 256.557C1006.14 256.557 1008.41 253.925 1015.86 262.491C1023.31 271.058 1029.72 267.755 1029.72 267.755L1038 268.413C1038 268.413 1032.62 273.229 1035.93 276.519C1036.64 277.242 1037.3 278.016 1037.91 278.835V278.835Z" fill="black"/>
<path d="M927.685 182.137C930.407 178.683 934.461 176.831 938.258 174.837C942.056 172.843 945.951 170.379 947.782 166.312C950.981 159.246 947.172 149.17 952.666 143.877C955.291 141.335 959.15 141.022 962.691 141.022C968.473 140.851 974.245 141.669 979.785 143.447C988.21 146.432 995.243 152.572 1002.74 157.695C1010.24 162.818 1019.06 166.937 1027.78 165.112C1032.87 164.056 1038.31 161.045 1042.9 163.639C1045.66 165.204 1047.23 168.476 1047.93 171.734C1048.76 175.651 1048.57 179.733 1047.39 183.545C1045.4 189.945 1040.75 195.094 1038.7 201.469C1037.94 203.828 1037.59 206.592 1038.81 208.717C1040.24 211.181 1043.28 211.963 1045.99 211.858C1048.7 211.754 1051.38 210.985 1054.08 211.311C1061.82 212.249 1066.29 221.674 1066.29 229.991C1066.29 238.308 1063.59 246.416 1063.51 254.759C1063.4 266.165 1068.48 277.128 1075.72 285.51C1083.8 294.829 1094.37 301.261 1106 303.93C1102.81 305.824 1099.23 306.874 1095.58 306.989C1091.93 307.105 1088.3 306.284 1085.01 304.595C1069.3 296.343 1066.89 271.81 1052.04 261.994C1051.2 261.329 1050.19 260.96 1049.14 260.938C1047.2 261.068 1045.98 263.154 1044.97 264.927C1039.37 274.925 1029.97 282.825 1019.17 284.559C1008.38 286.292 996.488 281.078 991.226 270.858C985.963 260.638 987.856 248.163 985.304 236.887C980.871 217.333 966.537 211.598 951.519 203.151C946.232 200.178 941.75 197.819 935.743 196.985C928.087 195.929 920.957 190.636 927.685 182.137Z" fill="#512E4E"/>
<g opacity="0.1">
<path opacity="0.1" d="M950.531 162.508C953.416 156.138 950.629 147.326 954.027 141.765C953.633 142.03 953.261 142.332 952.915 142.666C947.474 147.953 951.289 158.043 948.086 165.119C947.721 165.883 947.283 166.605 946.778 167.273C948.351 166.009 949.634 164.379 950.531 162.508V162.508Z" fill="black"/>
<path opacity="0.1" d="M1087.86 300.972C1072.11 292.709 1069.7 268.141 1054.78 258.298C1053.93 257.636 1052.91 257.267 1051.87 257.241C1050.3 257.345 1049.21 258.716 1048.32 260.178C1048.66 259.997 1049.04 259.886 1049.42 259.852C1050.47 259.878 1051.48 260.247 1052.33 260.909C1067.26 270.752 1069.67 295.319 1085.41 303.583C1088.71 305.271 1092.34 306.091 1095.99 305.976C1099.64 305.86 1103.22 304.811 1106.41 302.917C1105.69 302.747 1104.96 302.564 1104.24 302.369C1098.8 304.08 1092.97 303.582 1087.86 300.972V300.972Z" fill="black"/>
<path opacity="0.1" d="M1021.87 280.908C1011.07 282.644 999.151 277.409 993.894 267.188C988.637 256.967 990.52 244.448 987.965 233.169C983.515 213.588 969.162 207.844 954.125 199.385C948.844 196.396 944.345 194.046 938.342 193.211C931.007 192.18 923.953 187.036 930.102 178.76C929.322 179.417 928.605 180.156 927.963 180.966C921.263 189.477 928.403 194.777 935.897 195.822C941.9 196.657 946.399 199.007 951.68 201.996C966.717 210.455 981.021 216.147 985.519 235.78C988.075 247.059 986.204 259.63 991.449 269.799C996.693 279.968 1008.63 285.255 1019.42 283.519C1027.42 282.034 1034.71 277.699 1040.11 271.222C1035.06 276.305 1028.71 279.676 1021.87 280.908Z" fill="black"/>
</g>
<path d="M152.161 773.465C144.611 772.538 133.945 764.611 127.262 759.1C130.585 757.024 132.784 755.587 132.784 755.587C132.784 755.587 116.901 738.519 118.82 727.354C120.738 716.189 115.008 665.311 115.008 665.311C115.008 665.311 106.113 658.09 110.878 639.703C115.643 621.316 115.643 616.719 115.643 616.719C115.643 616.719 112.784 593.409 114.69 587.833C116.596 582.257 116.608 570.034 116.608 570.034L120.408 527.866L122.46 512.091C125.918 524.184 131.709 532.176 140.786 525.385C161.752 509.623 146.187 458.08 146.187 458.08C146.187 458.08 143.487 446.993 141.593 437.721L142.631 434.77C142.631 434.77 141.996 423.291 147.396 419.347C152.796 415.404 147.396 330.377 147.396 330.377L145.6 278.821V277.293C145.325 269.033 143.049 260.99 138.995 253.952C134.941 246.913 129.248 241.12 122.473 237.137L121.177 236.419C121.104 235.948 121.031 235.478 120.958 234.982C119.931 228.296 118.783 220.252 118.025 212.286C117.94 211.424 117.867 210.575 117.793 209.674C139.577 203.837 155.704 183.321 155.704 158.888C155.706 154.221 155.105 149.576 153.92 145.085C153.835 144.745 153.737 144.406 153.639 144.079C156.547 140.971 158.929 140.07 159.149 142.094C159.467 145.046 161.849 141.272 162.008 138.32C162.167 135.369 162.802 137.498 164.452 137.498C166.101 137.498 166.358 134.377 163.816 132.744C161.275 131.112 164.293 129.297 165.038 128.97C165.783 128.644 165.832 125.523 165.038 125.523C164.94 125.511 164.845 125.48 164.757 125.431H164.672C164.534 125.365 164.399 125.291 164.268 125.209L163.767 124.87L163.633 124.778L163.083 124.36C161.629 123.25 159.956 121.749 159.956 121.749L160.75 121.096C161.544 120.443 159.797 118.797 158.306 118.641H158.001C156.51 118.392 154.128 117.478 155.643 116.721C155.985 116.551 156.132 116.355 156.156 116.146C156.155 116.031 156.131 115.918 156.084 115.814C156.038 115.71 155.971 115.619 155.887 115.546V115.546C155.668 115.327 155.421 115.143 155.154 114.997V114.997L154.702 114.775L154.262 114.618C154.106 114.571 153.947 114.536 153.786 114.514H153.688H153.248H152.894C150.833 113.956 148.825 113.195 146.895 112.242V108.794L144.22 107.462L141.996 106.418L142.79 103.244H135.802L136.755 100.45L133.542 99.7836L132.784 99.6269V98.321L128.496 96.5189V94.547H123.34L125.319 92.9016H121.349C110.976 85.3013 81.764 85.8498 70.1208 90.0025C58.4775 94.1552 55.0811 97.2241 39.2106 132.901C29.0579 155.702 42.0206 177.81 53.4073 190.151C53.786 190.569 54.1648 190.961 54.5435 191.352L54.7024 191.522L55.7164 192.554L55.8141 192.645L56.9015 193.703L57.0237 193.807L57.9766 194.695L58.111 194.813L59.1373 195.714L60.0658 196.485L60.2246 196.615C60.8477 197.124 61.4464 197.568 61.9962 197.921L62.1672 198.039L62.9002 198.548H62.9613C63.2057 198.718 63.45 198.861 63.6822 199.005L63.8288 199.096L64.3786 199.41H64.5007L65.075 199.684H65.1727L65.5759 199.841H65.6858C65.8181 199.881 65.9528 199.912 66.089 199.932H66.5166C66.5958 199.914 66.6706 199.878 66.7365 199.828C68.2153 199.016 69.8084 198.469 71.4525 198.208L72.6742 199.253C73.2606 199.762 73.896 200.245 74.4824 200.716C74.629 201.669 74.7512 202.635 74.8611 203.641C75.5773 210.035 75.188 216.515 73.7127 222.759C73.5905 223.242 73.4561 223.725 73.3217 224.209C67.8699 226.004 63.193 229.814 60.1269 234.956C46.4678 257.613 40.4324 271.077 40.4324 271.077C40.4324 271.077 38.4165 286.369 34.9712 289.999C31.5258 293.629 41.3243 358.61 41.3243 358.61C41.3243 358.61 29.5711 383.553 40.1025 387.993C50.6339 392.433 39.1495 396.037 39.1495 396.037C39.1495 396.037 42.3261 403.585 36.2906 404.238C30.2552 404.891 26.7611 416.396 26.7611 416.396L8.0317 438.061L12.7476 439.784C12.3445 440.463 11.9291 441.169 11.5259 441.965C5.27056 453.144 -4.18574 475.918 2.03294 503.342C10.9272 542.741 13.4685 551.268 13.1508 558.189C12.8332 565.11 23.3035 592.338 20.7623 598.567C18.2211 604.796 16.8038 626.474 21.1655 632.063C25.5271 637.652 19.5039 640.917 19.5039 640.917C19.5039 640.917 26.0036 649.131 22.7537 654.707C19.5039 660.283 26.7977 729.234 26.7977 729.234C26.7977 729.234 38.5509 746.968 37.9156 752.544C37.2803 758.121 31.8802 761.085 36.6938 763.383C41.5075 765.682 39.5527 768.959 39.5527 768.959L40.7745 769.064C39.6871 770.109 38.6486 771.206 37.6957 772.316C36.75 773.413 35.8803 774.583 35.0933 775.815C34.6896 776.466 34.3303 777.147 34.0182 777.853C29.7421 787.908 41.1288 795.586 41.1288 795.586H42.3505H42.6437H43.0836H43.7066H43.9876H45.0139C56.0707 796.057 87.3229 796.892 102.057 792.975L102.326 793.158C102.326 793.158 158.221 796.37 169.326 788.156C180.432 779.942 163.914 774.901 152.161 773.465ZM94.9222 776.351L94.519 776.285L93.8837 776.168H93.4317L92.723 776.05H92.5276H92.4298C91.9045 775.972 91.3791 775.894 90.866 775.841C88.3581 775.437 85.9205 774.636 83.6333 773.465C82.0206 772.694 80.3834 771.767 78.7463 770.775L81.9717 770.696C82.8147 770.696 83.6455 770.696 84.4152 770.605L85.8691 770.526C89.5343 770.526 94.7878 771.049 96.1684 773.7C95.6647 774.528 95.2468 775.413 94.9222 776.338V776.351Z" fill="url(#paint2_linear)"/>
<path d="M124.955 252.9C124.054 252.9 53.1092 267.53 70.8453 241.521C74.2105 236.646 76.6614 231.106 78.06 225.213C79.4559 219.021 79.8223 212.61 79.1422 206.279C78.362 198.641 76.3688 191.206 73.2502 184.301C73.2502 184.301 131.869 170.322 122.551 181.05C118.486 185.732 118.594 200.024 119.941 214.628C120.663 222.521 121.745 230.493 122.719 237.112C124.09 246.332 125.244 252.9 124.955 252.9Z" fill="#FFCCD0"/>
<path d="M64.2051 755C64.2051 755 83.1462 773.272 94.635 774.702C106.124 776.131 122.27 781.317 111.403 789.439C100.535 797.561 45.8851 794.39 45.8851 794.39C45.8851 794.39 33.2287 785.735 39.9854 774.819C46.7421 763.902 64.2051 755 64.2051 755Z" fill="#3F3D56"/>
<path opacity="0.1" d="M111.404 789.439C109.316 790.788 107.009 791.726 104.598 792.207C86.4016 796.742 45.8853 794.39 45.8853 794.39C45.8853 794.39 33.2286 785.735 39.9854 774.819C46.7423 763.902 64.2058 755 64.2058 755C64.2058 755 83.1473 773.272 94.6365 774.702L96.2636 774.923C107.566 776.612 121.763 781.693 111.404 789.439Z" fill="black"/>
<path opacity="0.1" d="M151.65 791.01C149.968 792.048 148.111 792.77 146.17 793.14L145.17 793.09C145.17 793.09 136.4 787.37 139.48 779.84C148.56 781.14 159.99 785.05 151.65 791.01Z" fill="black"/>
<path d="M122.865 752C122.865 752 141.56 770.653 152.899 772.185C164.239 773.717 180.176 778.98 169.449 787.307C158.723 795.634 104.783 792.37 104.783 792.37C104.783 792.37 92.2907 783.51 98.9596 772.385C105.629 761.26 122.865 752 122.865 752Z" fill="#3F3D56"/>
<path opacity="0.1" d="M122.865 752C122.865 752 141.56 770.653 152.899 772.185C164.239 773.717 180.176 778.98 169.449 787.307C158.723 795.634 104.783 792.37 104.783 792.37C104.783 792.37 92.2907 783.51 98.9596 772.385C105.629 761.26 122.865 752 122.865 752Z" fill="black"/>
<path d="M105.484 766.357C103.033 768.274 97.1492 769.279 90.0278 769.722H89.9175L88.5814 769.8C87.797 769.8 86.988 769.879 86.13 769.892C68.1977 770.505 45.0684 768.313 45.0684 768.313C45.0684 768.313 46.907 765.052 42.3105 762.769C37.7141 760.487 42.9234 757.551 43.5363 752.007C44.1491 746.463 32.8602 728.853 32.8602 728.853C32.8602 728.853 25.8123 660.369 28.9502 654.825C32.088 649.281 25.8123 641.128 25.8123 641.128C25.8123 641.128 31.6345 637.866 27.418 632.322C23.2016 626.779 24.5866 605.255 27.0381 599.059C29.4895 592.862 19.3773 565.795 19.6838 558.946C19.9902 552.098 17.5387 543.619 8.95871 504.485C2.96495 477.091 12.0843 454.576 18.1148 443.462C19.4878 440.858 21.0362 438.365 22.7481 436H81.2761L82.7593 450.662L82.8328 451.471C83.3231 456.415 83.9237 462.402 84.5978 469.277C92.7734 552.006 112.606 760.865 105.484 766.357Z" fill="#3F3D56"/>
<path opacity="0.1" d="M105.473 766.458C102.787 768.51 96.2514 769.516 88.4042 769.909C86.342 769.777 84.2734 769.808 82.2155 770C82.2155 770 81.2872 767.765 70.1475 759.545C59.0079 751.325 70.1475 732.755 70.1475 732.755L58.5623 682.768C58.5623 682.768 55.6536 669.425 58.1291 661.584C60.6046 653.743 52.7944 651.783 52.7944 651.783C52.7944 651.783 60.6046 646.556 52.7944 639.695C44.9843 632.834 43.8951 607.677 43.8951 607.677C43.8951 607.677 32.7555 591.995 37.7064 586.768C42.6574 581.54 34.6121 569.125 34.6121 569.125C34.6121 569.125 22.8535 549.523 24.0913 542.989C25.329 536.454 42.0385 538.741 37.0875 517.832C32.1366 496.922 62.6468 525.673 62.6468 525.673L82.5992 451C89.0726 515.61 113.258 760.499 105.473 766.458Z" fill="black"/>
<path d="M134 754.499C134 754.499 101.308 776.706 99.189 772.461C97.8692 769.848 92.9169 769.312 89.3692 769.299H89.2602C87.1534 769.299 85.5672 769.469 85.5672 769.469C85.5672 769.469 84.6591 767.235 73.7618 759.018C62.8644 750.802 73.7618 732.239 73.7618 732.239L62.4285 682.272C62.4285 682.272 59.5346 668.934 61.9563 661.096C64.3779 653.258 56.7376 651.299 56.7376 651.299C56.7376 651.299 64.3779 646.073 56.7376 639.215C49.0974 632.357 48.0318 607.21 48.0318 607.21C48.0318 607.21 37.1345 591.534 41.9778 586.309C46.821 581.083 38.9507 568.673 38.9507 568.673C38.9507 568.673 27.4479 549.078 28.6587 542.547C29.8696 536.015 28.6587 537.321 23.8155 516.42C20.183 500.666 29.579 465.251 34.4465 448.765C36.0326 443.37 37.1345 440 37.1345 440L82.1891 449.784L127.34 459.595L128.551 476.904L128.212 479.647L122.158 527.981L118.526 569.927C118.526 569.927 118.526 582.011 116.71 587.563C114.893 593.115 117.618 616.302 117.618 616.302C117.618 616.302 117.618 620.874 113.077 639.163C108.536 657.451 117.012 664.636 117.012 664.636C117.012 664.636 122.461 715.256 120.645 726.36C118.828 737.464 134 754.499 134 754.499Z" fill="#3F3D56"/>
<path opacity="0.1" d="M68 633C72.3753 633.955 94.9753 634.517 89.0015 638.126C83.0278 641.735 68 633 68 633Z" fill="black"/>
<path opacity="0.1" d="M65 649.27C66.8684 649.089 75.438 644.915 77.7672 645.263C80.0964 645.611 83.2228 644.525 86.0254 645.263C88.8279 646 94.0718 648.045 91.1322 649.284C88.1927 650.522 82.0395 649.451 78.5021 650.675C74.9646 651.899 65 649.27 65 649.27Z" fill="black"/>
<path opacity="0.1" d="M40 643.015C41.1022 642.88 49.6445 640.8 48.9611 643.015C48.2778 645.231 40 643.015 40 643.015Z" fill="black"/>
<path opacity="0.1" d="M81.28 615.92C82.03 616.92 86.4 626.92 88.53 626.92C90.66 626.92 81.28 615.92 81.28 615.92Z" fill="black"/>
<path opacity="0.1" d="M122.962 181.115C118.761 185.871 118.873 200.392 120.265 215.23C116.092 216.406 111.792 217.001 107.475 217C96.4494 217 95.5793 202.215 87.3384 195.781C86.0332 182.899 72 184.418 72 184.418C72 184.418 132.595 170.215 122.962 181.115Z" fill="black"/>
<path d="M157 161.526C156.994 174.592 152.214 187.168 143.629 196.705C135.043 206.242 123.295 212.027 110.763 212.888C98.2311 213.749 85.8532 209.622 76.1367 201.343C66.4203 193.064 60.0919 181.252 58.4336 168.3C56.7753 155.348 59.9111 142.224 67.2057 131.588C74.5003 120.951 85.4083 113.597 97.7198 111.015C110.031 108.434 122.826 110.817 133.511 117.684C144.197 124.55 151.974 135.385 155.268 147.994C156.42 152.405 157.002 156.955 157 161.526V161.526Z" fill="#FFCCD0"/>
<path opacity="0.1" d="M124.955 252.945C124.053 252.945 53.1092 267.413 70.8453 241.692C74.2105 236.871 76.6614 231.393 78.06 225.566C92.4051 220.666 109.985 228.832 109.985 228.832L118.101 235.262C119.716 235.799 121.282 236.492 122.779 237.333C124.09 246.451 125.244 252.945 124.955 252.945Z" fill="black"/>
<path opacity="0.1" d="M129 477.4L128.655 480.12C126.699 480.82 117.705 483.449 96.1985 474.162C92.7412 472.672 88.4718 470.91 83.7349 468.98C68.4661 462.827 48.1897 455.081 33.3761 449.55C26.2769 446.868 20.4327 444.679 17 443.41C18.3781 440.825 19.9325 438.348 21.6508 436H80.4006L81.8894 450.56L127.77 460.236L129 477.4Z" fill="black"/>
<path d="M110.026 229.896C110.026 229.896 77.5061 214.901 64.314 237.394C51.1219 259.886 45.2929 273.251 45.2929 273.251C45.2929 273.251 43.4521 288.246 40.0774 291.832C36.7027 295.417 46.2132 359.96 46.2132 359.96C46.2132 359.96 34.8619 384.735 44.9861 389.129C55.1102 393.523 44.0657 397.122 44.0657 397.122C44.0657 397.122 47.1336 404.619 41.3046 405.271C35.4755 405.923 32.1008 417.332 32.1008 417.332L14 438.846C14 438.846 73.1128 461.013 96.3309 471.118C119.549 481.223 128.127 477.312 129.047 476.986C129.968 476.66 144.08 435.587 144.08 435.587C144.08 435.587 143.467 424.178 148.682 420.266C153.897 416.354 148.682 331.927 148.682 331.927L146.89 279.21C146.67 271.093 144.501 263.171 140.59 256.195C136.679 249.219 131.156 243.421 124.544 239.35C122.573 238.132 120.483 237.148 118.31 236.416L110.026 229.896Z" fill="#FFDC40"/>
<path d="M142.506 319.83L149 331.864C149 331.864 97.0446 347.476 95.0034 332.515C94.6942 330.329 115.291 313 115.291 313L142.506 319.83Z" fill="#FFDC40"/>
<path opacity="0.1" d="M142.506 319.83L149 331.864C149 331.864 97.0446 347.476 95.0034 332.515C94.6942 330.329 115.291 313 115.291 313L142.506 319.83Z" fill="#FFDC40"/>
<path opacity="0.1" d="M55 385.161C55 385.161 78.252 376.961 73.3109 383.584C68.3699 390.206 55 385.161 55 385.161Z" fill="black"/>
<path opacity="0.1" d="M82 387C82 387 95.431 403.908 98.6476 397.584C101.864 391.26 82 387 82 387Z" fill="black"/>
<path opacity="0.1" d="M155 148.262C153.354 150.022 151.897 151.968 150.656 154.063C146.337 161.2 143.104 161.369 143.104 161.369C143.104 161.369 143.104 176.812 141.105 178.421C139.105 180.03 127.678 171.582 127.53 169.48C127.382 167.377 113.425 144.499 107.366 173.529L106.23 197.056C106.23 197.056 86.2389 199.651 76.0087 202C70.011 196.813 65.2615 190.212 62.1463 182.732C59.0311 175.252 57.6379 167.105 58.0801 158.952C58.5223 150.8 60.7872 142.872 64.691 135.813C68.5948 128.754 74.0272 122.763 80.5468 118.327C87.0664 113.891 94.4892 111.135 102.212 110.283C109.935 109.431 117.74 110.507 124.993 113.424C132.246 116.341 138.743 121.016 143.954 127.069C149.166 133.123 152.946 140.384 154.988 148.262H155Z" fill="black"/>
<path d="M123.509 95.8441H127.329L125.413 97.4679H130.381V99.4166L134.495 101.196V102.495L138.315 103.314L137.4 106.068H144.113L143.344 109.199L147.922 111.433V114.837C147.922 114.837 152.499 117.11 154.025 117.11C155.551 117.11 158.077 118.578 156.466 119.384C154.855 120.189 157.687 121.176 159.017 121.332C160.348 121.488 162.069 123.125 161.3 123.775L160.543 124.424C160.543 124.424 164.657 128.152 165.426 128.152C166.195 128.152 166.182 131.244 165.426 131.569C164.669 131.894 161.764 133.674 164.205 135.297C166.646 136.921 166.341 140.013 164.815 140.013C163.289 140.013 162.679 137.896 162.521 140.819C162.362 143.742 160.079 147.483 159.774 144.56C159.469 141.637 154.745 144.885 150.473 152.03C146.201 159.175 142.99 159.331 142.99 159.331C142.99 159.331 142.99 174.79 141.013 176.401C139.035 178.012 127.732 169.567 127.586 167.45C127.439 165.332 113.634 142.442 107.641 171.516L106.53 195.056C106.53 195.056 73.5725 199.447 70.9726 201.876C68.3726 204.305 29.2633 170.698 44.5213 135.401C59.7793 100.105 63.0384 97.0782 74.2317 92.9731C85.4249 88.868 113.536 88.3093 123.509 95.8441Z" fill="#3F3D56"/>
<path d="M97.6106 325.444C97.6106 325.444 97.3076 351.97 95.1866 358.52C93.0655 365.07 109.731 426.309 109.731 426.309C109.731 426.309 123.063 458.599 120.639 468.555C118.215 478.51 121.548 542.238 141.547 526.519C161.546 510.8 146.698 459.385 146.698 459.385C146.698 459.385 140.335 430.75 140.335 427.226C140.335 423.702 133.669 370.637 133.669 370.637C133.669 370.637 128.518 353.28 130.033 342.801C131.548 332.322 132.154 313 132.154 313L97.6106 325.444Z" fill="#FFCCD0"/>
<path opacity="0.1" d="M118.128 276C118.128 276 94.4332 284.368 93.441 307.218C92.4488 330.069 93.441 332 93.441 332C93.441 332 128.759 312.69 145 331.356L143.335 280.828L118.128 276Z" fill="black"/>
<path d="M121.094 276C121.094 276 96.4883 284.368 95.4579 307.218C94.4276 330.069 95.4579 332 95.4579 332C95.4579 332 132.134 312.69 149 331.356L147.27 280.828L121.094 276Z" fill="#FFDC40"/>
<g opacity="0.1">
<path opacity="0.1" d="M153.627 117.315C153.077 118.046 155.351 118.829 156.574 118.973C156.698 118.991 156.821 119.021 156.94 119.064C157.026 118.268 155.192 117.341 153.97 117.341L153.627 117.315Z" fill="black"/>
<path opacity="0.1" d="M145.412 112.446C145.412 112.446 146.537 113.007 147.857 113.568V111.636L145.412 110.435V112.446Z" fill="black"/>
<path opacity="0.1" d="M158.725 121.584L158.102 122.119C158.102 122.119 159.508 123.424 160.84 124.468L161.305 124.077C162.075 123.424 160.388 121.792 159.019 121.623L158.725 121.584Z" fill="black"/>
<path opacity="0.1" d="M140.828 106.793L143.578 108.125L144.031 106.245H140.962L140.828 106.793Z" fill="black"/>
<path opacity="0.1" d="M105.118 169.4L104.005 193.054C104.005 193.054 70.9969 197.467 68.3929 199.908C67.5861 200.678 63.1972 197.897 58.0137 192.637C64.1997 199.568 69.8966 203.406 70.838 202.518C73.442 200.077 106.45 195.665 106.45 195.665L107.563 172.011C111.071 154.884 117.343 155.707 121.842 159.74C117.343 154.088 109.348 148.997 105.118 169.4Z" fill="black"/>
<path opacity="0.1" d="M164.214 135.617C161.769 133.985 164.667 132.196 165.437 131.87C166.207 131.544 166.195 128.437 165.437 128.437C164.743 128.175 164.104 127.771 163.554 127.249C163.554 128.111 163.395 129.077 162.992 129.259C162.222 129.586 159.324 131.374 161.769 133.006C164.214 134.638 163.909 137.744 162.381 137.744C160.853 137.744 160.241 135.617 160.082 138.554C159.923 141.491 157.637 145.25 157.332 142.313C157.026 139.376 152.295 142.64 148.016 149.819C143.737 156.999 140.522 157.156 140.522 157.156C140.522 157.156 140.522 172.69 138.541 174.309C137.16 175.418 131.365 171.698 127.844 168.643C129.641 171.489 139.165 178.395 140.986 176.92C142.808 175.444 142.967 159.767 142.967 159.767C142.967 159.767 146.182 159.61 150.461 152.43C154.74 145.25 159.471 141.987 159.777 144.924C160.082 147.861 162.381 144.102 162.527 141.165C162.674 138.227 163.298 140.355 164.826 140.355C166.354 140.355 166.66 137.248 164.214 135.617Z" fill="black"/>
<path opacity="0.1" d="M134.862 103.634H138.175L138.224 103.478L135.143 102.812L134.862 103.634Z" fill="black"/>
<path opacity="0.1" d="M130.277 98.008V97.6034H129.336L130.277 98.008Z" fill="black"/>
</g>
<path d="M161 499.812C161 499.812 261.779 336.939 380.5 429.407C499.222 521.874 528.388 580.481 627.637 547.922C726.886 515.363 723.202 451.365 801.534 474.898C879.865 498.432 907 421.371 907 421.371" stroke="#FFDC40" stroke-width="4" stroke-miterlimit="10"/>
<path d="M916.212 390.652L916.201 390.647C910.726 388.127 904.374 390.823 902.014 396.669L891.45 422.838C889.089 428.684 891.614 435.466 897.089 437.986L897.1 437.991C902.575 440.511 908.927 437.815 911.287 431.969L921.852 405.8C924.212 399.954 921.687 393.172 916.212 390.652Z" fill="#FFDC40"/>
</g>
<defs>
<linearGradient id="paint0_linear" x1="622" y1="500.033" x2="622" y2="18.0261" gradientUnits="userSpaceOnUse">
<stop stop-color="#808080" stop-opacity="0.25"/>
<stop offset="0.54" stop-color="#808080" stop-opacity="0.12"/>
<stop offset="1" stop-color="#808080" stop-opacity="0.1"/>
</linearGradient>
<linearGradient id="paint1_linear" x1="209917" y1="473637" x2="209917" y2="189952" gradientUnits="userSpaceOnUse">
<stop stop-color="#808080" stop-opacity="0.25"/>
<stop offset="0.54" stop-color="#808080" stop-opacity="0.12"/>
<stop offset="1" stop-color="#808080" stop-opacity="0.1"/>
</linearGradient>
<linearGradient id="paint2_linear" x1="32406.4" y1="577525" x2="32406.4" y2="192432" gradientUnits="userSpaceOnUse">
<stop stop-color="#808080" stop-opacity="0.25"/>
<stop offset="0.54" stop-color="#808080" stop-opacity="0.12"/>
<stop offset="1" stop-color="#808080" stop-opacity="0.1"/>
</linearGradient>
<clipPath id="clip0">
<rect width="1110.65" height="810.94" fill="white"/>
</clipPath>
</defs>
</svg>
