<svg width="60%" height="60%" viewBox="0 0 1401 835" fill="none" xmlns="http://www.w3.org/2000/svg">
<g clip-path="url(#clip0)">
<path d="M1401.46 833.008C1401.46 833.525 1401.45 834.058 1401.42 834.575H1.27507C1.24673 834.058 1.2326 833.525 1.2326 833.008C1.2326 754.379 314.686 690.648 701.347 690.648C1088.01 690.648 1401.46 754.379 1401.46 833.008Z" fill="#3F3D56"/>
<path d="M931.809 712.476C932.105 705.489 930.402 698.577 926.946 692.735C923.49 686.892 918.458 682.42 912.574 679.961C906.69 677.502 900.257 677.183 894.2 679.05C888.143 680.917 882.774 684.874 878.864 690.351C875.706 684.988 871.217 680.76 865.943 678.18C867.643 671.015 867.133 663.421 864.494 656.617C861.855 649.813 857.241 644.192 851.39 640.654C845.539 637.116 838.791 635.866 832.226 637.106C825.661 638.345 819.66 642.001 815.184 647.488C808.165 639.744 799.738 633.762 790.47 629.941C791.614 621.891 790.047 613.654 786.069 606.811C782.092 599.967 775.985 594.999 768.919 592.859C761.853 590.719 754.326 591.558 747.781 595.215C741.237 598.871 736.136 605.088 733.456 612.673C728.215 608.615 721.938 606.546 715.557 606.771C709.175 606.996 703.028 609.505 698.029 613.924C693.029 618.344 689.442 624.439 687.8 631.306C686.158 638.174 686.548 645.447 688.913 652.048C685.408 653.485 682.177 655.644 679.389 658.413C672.588 655.624 665.105 655.699 658.35 658.623C651.595 661.548 646.033 667.12 642.712 674.291C640.021 670.967 636.752 668.285 633.103 666.406C633.191 665.596 633.282 664.787 633.317 663.959C633.512 659.344 632.837 654.734 631.335 650.427C629.833 646.119 627.538 642.209 624.596 638.949C621.654 635.688 618.132 633.15 614.255 631.496C610.379 629.843 606.234 629.111 602.088 629.348C597.942 629.585 593.887 630.786 590.183 632.873C586.479 634.96 583.209 637.887 580.583 641.465C577.957 645.044 576.033 649.195 574.936 653.651C573.838 658.108 573.591 662.77 574.211 667.339C567.477 669.381 561.614 674.019 557.668 680.426C553.722 686.833 551.949 694.593 552.667 702.319C519.299 703.409 487.116 705.15 456.361 707.503C452.574 692.747 444.924 679.582 434.386 669.686C423.848 659.79 410.9 653.612 397.194 651.941C383.488 650.27 369.645 653.181 357.432 660.303C345.219 667.425 335.189 678.435 328.622 691.928C323.472 687.59 317.193 685.237 310.734 685.225C304.276 685.214 297.99 687.543 292.827 691.862C287.664 696.181 283.906 702.254 282.121 709.162C280.336 716.071 280.621 723.438 282.933 730.15C281.587 730.419 280.247 730.69 278.912 730.962C278.959 730.413 279.032 729.873 279.055 729.316C279.241 724.971 278.655 720.628 277.332 716.536C276.008 712.443 273.973 708.681 271.342 705.465C268.711 702.249 265.537 699.641 262 697.791C258.463 695.941 254.633 694.886 250.729 694.684C246.825 694.483 242.924 695.14 239.249 696.618C235.573 698.096 232.196 700.366 229.309 703.298C226.422 706.23 224.083 709.767 222.425 713.706C220.768 717.644 219.824 721.908 219.648 726.254C219.633 726.597 219.656 726.931 219.652 727.272C216.933 726.123 214.009 725.708 211.119 726.061C208.229 726.414 205.455 727.524 203.025 729.301C200.594 731.078 198.578 733.47 197.139 736.283C195.701 739.095 194.882 742.247 194.75 745.48C194.642 748.075 931.755 713.764 931.809 712.476Z" fill="#E7F0EC"/>
<path d="M10.5247 386.284C10.5654 386.18 10.6085 386.074 10.6494 385.969C10.6317 386.015 10.6095 386.059 10.5922 386.105L10.5247 386.284Z" fill="#2F2E41"/>
<path d="M463.456 252.871C468.221 252.871 472.084 248.844 472.084 243.876C472.084 238.908 468.221 234.88 463.456 234.88C458.691 234.88 454.828 238.908 454.828 243.876C454.828 248.844 458.691 252.871 463.456 252.871Z" fill="#E7F0EC"/>
<path d="M483.177 587.701C487.942 587.701 491.805 583.673 491.805 578.705C491.805 573.737 487.942 569.71 483.177 569.71C478.412 569.71 474.549 573.737 474.549 578.705C474.549 583.673 478.412 587.701 483.177 587.701Z" fill="#D0CDE1"/>
<path d="M393.814 72.9628C398.239 72.9628 401.826 68.7117 401.826 63.4676C401.826 58.2236 398.239 53.9725 393.814 53.9725C389.389 53.9725 385.802 58.2236 385.802 63.4676C385.802 68.7117 389.389 72.9628 393.814 72.9628Z" fill="#E7F0EC"/>
<path d="M535.338 185.81C540.025 185.81 543.825 182.729 543.825 178.929C543.825 175.128 540.025 172.047 535.338 172.047C530.651 172.047 526.851 175.128 526.851 178.929C526.851 182.729 530.651 185.81 535.338 185.81Z" fill="#E7F0EC"/>
<path d="M414.768 295.849C427.362 295.849 437.571 284.662 437.571 270.862C437.571 257.062 427.362 245.875 414.768 245.875C402.175 245.875 391.965 257.062 391.965 270.862C391.965 284.662 402.175 295.849 414.768 295.849Z" fill="#E7F0EC"/>
<path d="M543.574 102.948C563.997 102.948 580.552 84.8243 580.552 62.4682C580.552 40.112 563.997 21.9888 543.574 21.9888C523.152 21.9888 506.597 40.112 506.597 62.4682C506.597 84.8243 523.152 102.948 543.574 102.948Z" fill="#E7F0EC"/>
<path d="M613.216 262.866C623.087 262.866 631.089 253.916 631.089 242.876C631.089 231.836 623.087 222.886 613.216 222.886C603.345 222.886 595.343 231.836 595.343 242.876C595.343 253.916 603.345 262.866 613.216 262.866Z" fill="#E7F0EC"/>
<path opacity="0.15" d="M1013.11 709.347L1012.35 710.674L1043.46 732.684L1044.22 731.358L1013.11 709.347Z" fill="black"/>
<path d="M933.042 696.485C933.337 689.497 931.637 682.585 928.187 676.743C924.736 670.9 919.713 666.428 913.839 663.969C907.965 661.511 901.542 661.192 895.495 663.058C889.449 664.925 884.088 668.882 880.186 674.359C877.032 668.996 872.551 664.768 867.285 662.188C868.983 655.023 868.474 647.43 865.839 640.625C863.205 633.821 858.598 628.2 852.757 624.662C846.916 621.124 840.179 619.875 833.625 621.114C827.071 622.353 821.08 626.009 816.612 631.496C809.604 623.753 801.192 617.77 791.939 613.949C793.081 605.899 791.516 597.662 787.546 590.819C783.575 583.976 777.478 579.007 770.424 576.867C763.37 574.727 755.855 575.566 749.322 579.223C742.788 582.879 737.696 589.097 735.021 596.682C729.788 592.624 723.522 590.554 717.151 590.779C710.78 591.004 704.644 593.513 699.652 597.932C694.661 602.352 691.08 608.447 689.441 615.314C687.801 622.182 688.191 629.455 690.552 636.056C687.052 637.494 683.827 639.653 681.044 642.421C674.254 639.632 666.784 639.707 660.04 642.632C653.296 645.556 647.744 651.128 644.428 658.299C641.741 654.975 638.478 652.293 634.835 650.414C634.923 649.604 635.014 648.795 635.048 647.968C635.244 643.352 634.57 638.742 633.07 634.435C631.571 630.127 629.279 626.217 626.342 622.957C623.406 619.696 619.889 617.158 616.019 615.504C612.149 613.851 608.011 613.119 603.872 613.356C599.733 613.593 595.684 614.794 591.987 616.881C588.289 618.968 585.024 621.895 582.403 625.474C579.781 629.052 577.861 633.203 576.765 637.66C575.67 642.116 575.423 646.778 576.042 651.347C569.319 653.389 563.465 658.027 559.526 664.434C555.586 670.841 553.817 678.601 554.534 686.328C521.221 687.418 489.092 689.158 458.389 691.511C454.608 676.755 446.971 663.59 436.45 653.694C425.93 643.798 413.003 637.62 399.32 635.949C385.638 634.278 371.818 637.189 359.625 644.311C347.433 651.433 337.419 662.443 330.863 675.936C325.722 671.598 319.453 669.245 313.005 669.233C306.558 669.222 300.282 671.551 295.128 675.87C289.974 680.189 286.222 686.262 284.44 693.171C282.658 700.079 282.942 707.446 285.251 714.158C283.907 714.427 282.569 714.698 281.236 714.971C281.284 714.421 281.357 713.881 281.38 713.324C281.565 708.979 280.98 704.637 279.659 700.544C278.337 696.451 276.305 692.689 273.679 689.473C271.053 686.257 267.883 683.649 264.352 681.799C260.821 679.949 256.998 678.894 253.1 678.693C249.203 678.491 245.309 679.148 241.639 680.627C237.97 682.105 234.598 684.374 231.716 687.306C228.834 690.238 226.499 693.775 224.844 697.714C223.189 701.653 222.247 705.917 222.071 710.262C222.057 710.605 222.08 710.939 222.075 711.28C219.361 710.132 216.442 709.717 213.557 710.069C210.671 710.422 207.902 711.532 205.476 713.309C203.05 715.086 201.036 717.479 199.6 720.291C198.164 723.104 197.347 726.255 197.215 729.488C197.107 732.083 932.988 697.772 933.042 696.485Z" fill="#E7F0EC"/>
<path d="M316.161 378.807C330.116 378.807 341.429 366.277 341.429 350.821C341.429 335.365 330.116 322.835 316.161 322.835C302.205 322.835 290.892 335.365 290.892 350.821C290.892 366.277 302.205 378.807 316.161 378.807Z" fill="#A0616A"/>
<path d="M321.146 314.931C330.167 315.571 338.537 320.308 346.359 325.434C345.71 325.063 344.969 324.948 344.255 325.107C343.541 325.267 342.894 325.692 342.418 326.315C341.374 327.461 340.718 328.991 339.714 330.181C337.847 332.392 335.046 333.157 332.409 333.822L320.117 336.918L308.717 339.79C305.884 340.719 302.921 341.028 299.986 340.699C297.085 340.157 294.213 338.037 293.454 334.82C292.401 330.35 300.249 323.699 303.127 321.007C308.26 316.52 314.682 314.355 321.146 314.931Z" fill="#2F2E41"/>
<path d="M298.197 338.092C303.443 329.836 311.631 324.467 319.844 319.837C318.462 320.45 318.111 322.457 318.482 324.087C318.852 325.717 319.734 327.19 320.161 328.807C320.953 331.813 320.097 334.91 319.245 337.795L315.277 351.243L311.597 363.715C310.859 366.922 309.549 369.929 307.744 372.551C306.778 373.861 305.501 374.836 304.06 375.364C302.619 375.892 301.075 375.951 299.605 375.534C295.471 374.066 294.258 362.893 293.611 358.656C292.682 351.393 294.328 344.011 298.197 338.092V338.092Z" fill="#2F2E41"/>
<path d="M425.245 329.532C425.245 329.532 426.693 293.255 433.931 294.904C441.169 296.553 435.378 332.83 435.378 332.83L425.245 329.532Z" fill="#A0616A"/>
<path d="M423.619 392.133L390.7 418.979L381.124 426.783L356.22 387.182L371.764 380.283L404.57 365.733L423.619 322.835L439.728 327.787C442.668 336.036 423.619 392.133 423.619 392.133Z" fill="#5D51F2"/>
<path d="M372.06 320.967C372.06 320.967 367.864 278.79 376.256 282.034C384.648 285.279 383.25 325.834 383.25 325.834L372.06 320.967Z" fill="#A0616A"/>
<path d="M304.23 704.892L295.823 729.781L319.242 737.624L318.796 704.641L304.23 704.892Z" fill="#5D51F2"/>
<path d="M374.709 533.982L350.911 643.383L328.054 713.131L298.288 713.636L325.336 623.998L335.878 524.733L374.709 533.982Z" fill="#2F2E41"/>
<path d="M292.26 727.662C292.26 727.662 283.203 748.946 289.31 751.86C295.417 754.774 312.004 758.688 312.004 758.688L314.281 756.574C314.281 756.574 352.604 766.058 359.021 751.517C365.438 736.975 335.318 730.605 335.318 730.605L321.552 717.634L305.017 726.548L292.26 727.662Z" fill="#2F2E41"/>
<path d="M273.414 700.895L265.008 725.783L288.427 733.626L287.981 700.643L273.414 700.895Z" fill="#5D51F2"/>
<path d="M303.495 527.731L294.697 624.463L267.473 704.164L292.947 713.636L332.027 628.784L350.057 531.08L303.495 527.731Z" fill="#2F2E41"/>
<path d="M260.253 723.987C260.253 723.987 246.29 741.536 251.303 746.262C256.317 750.987 270.954 759.985 270.954 759.985L273.64 758.678C273.64 758.678 307.346 779.89 317.102 767.973C326.858 756.056 300.091 740.423 300.091 740.423L290.421 723.631L272.562 726.952L260.253 723.987Z" fill="#2F2E41"/>
<path opacity="0.15" d="M390.733 418.981L381.148 426.783L356.22 387.191L363.156 385.803C363.541 386.516 369.55 386.338 369.946 387.076C377.222 400.477 387.711 411.803 390.733 418.981Z" fill="black"/>
<path d="M405.91 551.092C404.201 549.859 403.803 536.971 401.354 535.846C400.111 535.274 397.069 546.425 395.66 545.881C359.056 531.754 277.23 562.038 263.527 528.222C254.314 505.487 312.826 461.404 312.826 444.938C312.633 440.745 311.951 436.598 310.798 432.601C308.007 421.7 302.813 407.978 298.622 397.623C295.033 388.755 292.163 382.364 292.163 382.364C292.163 382.364 335.208 368.096 349.002 362.582C350.757 361.883 352.032 361.324 352.693 360.955C355.336 359.482 362.125 369.9 369.084 382.593C377.65 398.233 386.489 417.342 388.118 421.891C391.068 430.124 431.004 569.21 405.91 551.092Z" fill="#5D51F2"/>
<path opacity="0.15" d="M363.616 379.65C347.589 401.149 330.341 426.848 315.491 431.71C313.864 432.257 312.192 432.616 310.499 432.779C307.7 421.858 302.492 408.111 298.288 397.737C299.999 395.644 302.049 393.93 304.331 392.684L344.482 370.663L348.811 362.632C350.571 361.931 351.85 361.371 352.513 361.002C355.163 359.526 356.636 366.934 363.616 379.65Z" fill="black"/>
<path d="M304.748 386.017C293.807 391.974 289.821 407.456 296.909 418.432C300.587 424.127 306.473 427.727 315.889 424.663C341 416.495 388.268 357.681 388.268 339.71V323.373L370.542 316.839L344.808 364.206L304.748 386.017Z" fill="#5D51F2"/>
<path d="M371.047 393.791C372.075 392.975 371.719 390.461 370.251 388.174C368.783 385.888 366.759 384.696 365.731 385.512C364.703 386.328 365.059 388.843 366.527 391.129C367.995 393.415 370.018 394.607 371.047 393.791Z" fill="#2F2E41"/>
<path d="M377.91 407.776C378.938 406.96 378.582 404.445 377.114 402.159C375.646 399.873 373.622 398.681 372.594 399.497C371.565 400.313 371.922 402.827 373.39 405.113C374.858 407.4 376.881 408.592 377.91 407.776Z" fill="#2F2E41"/>
<path d="M383.629 423.032C384.657 422.216 384.301 419.701 382.833 417.415C381.365 415.129 379.341 413.937 378.313 414.753C377.285 415.569 377.641 418.084 379.109 420.37C380.577 422.656 382.6 423.848 383.629 423.032Z" fill="#2F2E41"/>
<path d="M385.882 438.961C387.077 438.507 387.384 435.984 386.567 433.326C385.75 430.669 384.118 428.882 382.923 429.336C381.727 429.791 381.42 432.313 382.238 434.971C383.055 437.629 384.686 439.415 385.882 438.961Z" fill="#2F2E41"/>
<path d="M390.457 454.217C391.653 453.763 391.959 451.24 391.142 448.583C390.325 445.925 388.694 444.139 387.498 444.593C386.302 445.047 385.996 447.569 386.813 450.227C387.63 452.885 389.261 454.671 390.457 454.217Z" fill="#2F2E41"/>
<path d="M395.032 468.202C396.228 467.748 396.535 465.225 395.717 462.567C394.9 459.91 393.269 458.123 392.073 458.578C390.878 459.032 390.571 461.554 391.388 464.212C392.205 466.87 393.837 468.656 395.032 468.202Z" fill="#2F2E41"/>
<path d="M397.32 483.458C398.515 483.004 398.822 480.481 398.005 477.824C397.188 475.166 395.556 473.38 394.361 473.834C393.165 474.288 392.859 476.81 393.676 479.468C394.493 482.126 396.124 483.912 397.32 483.458Z" fill="#2F2E41"/>
<path d="M399.607 498.714C400.803 498.26 401.11 495.737 400.293 493.08C399.476 490.422 397.844 488.636 396.649 489.09C395.453 489.544 395.146 492.066 395.963 494.724C396.78 497.382 398.412 499.168 399.607 498.714Z" fill="#2F2E41"/>
<path d="M401.895 515.242C403.091 514.788 403.397 512.265 402.58 509.607C401.763 506.95 400.132 505.163 398.936 505.617C397.741 506.071 397.434 508.594 398.251 511.252C399.068 513.909 400.7 515.696 401.895 515.242Z" fill="#2F2E41"/>
<path d="M403.039 531.769C404.234 531.315 404.541 528.792 403.724 526.135C402.907 523.477 401.275 521.691 400.08 522.145C398.884 522.599 398.578 525.122 399.395 527.779C400.212 530.437 401.843 532.223 403.039 531.769Z" fill="#2F2E41"/>
<path d="M302.189 367.514C302.189 367.514 335.781 323.629 332.586 315.116C329.392 306.604 303.096 288.942 272.712 303.264C272.712 303.264 259.366 291.521 254.723 307.735C250.081 323.949 266.948 326.017 266.948 326.017C266.948 326.017 261.738 364.54 293.074 371.811L302.189 367.514Z" fill="#5D51F2"/>
</g>
<defs>
<clipPath id="clip0">
<rect width="1401" height="835" fill="white"/>
</clipPath>
</defs>
</svg>
